<svg width="64" height="64" viewBox="0 0 64 64" fill="none" xmlns="http://www.w3.org/2000/svg">
<circle cx="32" cy="32" r="32" fill="#E4F7F9"/>
<path d="M32.028 21.9936C32.4454 21.6859 32.8598 21.3172 33.2254 20.9516C33.4509 20.7261 33.5545 20.4458 33.3656 20.1594C32.9725 19.5561 31.8147 19.4129 31.2632 19.8394C30.8488 20.1594 30.9494 20.6316 30.8366 21.0826C30.7056 21.6066 30.3156 21.9784 29.8829 22.2709C29.2035 22.734 28.1949 23.2124 28.1889 24.1782C28.1889 24.5652 28.3412 24.9704 28.4448 25.3361C28.6063 25.8967 28.783 26.4451 29.0115 26.9844C29.2126 27.4598 29.4503 27.9199 29.6422 28.3982C29.8342 28.8766 29.9957 29.361 30.212 29.8272C30.4527 30.3452 30.7117 30.851 30.992 31.3476C31.2998 31.89 31.5648 32.4598 31.9061 32.9838C32.2077 33.45 32.6038 33.8339 32.9847 34.2331C33.3656 34.6322 33.7312 35.1075 34.1608 35.4884C34.9865 36.2227 35.992 36.7803 37.0645 37.0362C38.137 37.2922 39.1547 37.5055 40.215 37.1825C41.0743 36.9204 41.7202 36.2836 42.1529 35.5067C42.68 34.5621 43.073 33.5292 43.2559 32.4598C43.3473 31.9326 43.3595 31.3964 43.3899 30.8632C43.4204 30.2904 43.5088 29.7206 43.5423 29.1447C43.6063 27.9473 43.5423 26.7681 43.3808 25.5829C43.3016 24.9948 43.3077 24.4007 43.2589 23.8096C43.2163 23.2733 43.1492 22.734 43.0791 22.2008C42.9634 21.3324 42.6282 20.5037 41.9061 19.9674C41.184 19.4311 40.3613 19.2697 39.5264 19.2087C38.9231 19.1661 38.332 19.23 37.747 19.3732C37.4941 19.4342 37.2473 19.5104 36.9914 19.5591C36.8025 19.5957 36.6197 19.6688 36.5709 19.4525C36.5283 19.2636 36.577 19.0655 36.4582 18.8949C36.3394 18.7243 36.1505 18.6511 35.9494 18.6694C35.5929 18.6999 35.276 18.9893 35.0871 19.2727C34.8342 19.6505 34.7245 20.1258 34.8494 20.5676C34.9652 20.9729 35.3948 21.372 35.7879 21.0003C35.9097 20.8845 35.9554 20.723 36.1108 20.6438C36.3241 20.5372 36.6319 20.5707 36.8573 20.6012C37.2961 20.6621 37.488 19.9887 37.0432 19.9278C36.6441 19.8729 36.2388 19.8425 35.8579 19.9979C35.7452 20.0436 35.6386 20.1015 35.5472 20.1837C35.4893 20.2355 35.4009 20.3117 35.3735 20.3848C35.2577 20.5128 35.3156 20.5311 35.5411 20.4397C35.5106 20.3574 35.4954 20.2721 35.4954 20.1837C35.4954 20.0101 35.5593 19.8364 35.6538 19.6901C35.7147 19.5957 35.8427 19.5195 35.8915 19.4311L35.9707 19.3824C35.8793 19.2605 35.8458 19.2636 35.8732 19.3946C35.861 19.4403 35.8854 19.55 35.8915 19.5896C35.928 19.809 36.0194 20.0101 36.2022 20.1441C36.7964 20.5768 37.8141 20.0344 38.4448 19.9369C39.2522 19.812 40.017 19.8851 40.7604 20.1441C41.5039 20.4031 42.0493 20.9272 42.2839 21.7194C42.4088 22.1368 42.4332 22.5725 42.4819 23.0021C42.5368 23.5018 42.5855 23.9954 42.613 24.4951C42.6648 25.5158 42.8628 26.5152 42.8689 27.539C42.875 28.5628 42.8049 29.4829 42.7257 30.464C42.6465 31.4451 42.6343 32.344 42.3601 33.2733C42.1224 34.0899 41.7537 35.0039 41.2175 35.6712C40.7452 36.2593 40.0688 36.6036 39.3162 36.6554C38.7982 36.6919 38.2894 36.5822 37.7866 36.4756C37.2839 36.369 36.7476 36.2562 36.2662 36.0307C35.4009 35.6255 34.6483 35.0314 34.0207 34.3184C33.393 33.6054 32.6739 32.9351 32.1956 32.0667C31.7172 31.1983 31.2083 30.3117 30.794 29.3976C30.4283 28.5871 30.1206 27.7492 29.758 26.9357C29.5265 26.4147 29.3406 25.8815 29.1821 25.333C29.0816 24.9826 28.8927 24.5652 28.8957 24.1935C28.8988 23.7882 29.3132 23.4714 29.6392 23.255C30.0261 22.9991 30.4314 22.7706 30.7787 22.4537C31.1048 22.1581 31.3546 21.7895 31.4887 21.369C31.6105 20.9912 31.4521 20.3574 31.9548 20.2934C32.1438 20.269 32.3479 20.3056 32.5246 20.3726C32.5886 20.397 32.6678 20.461 32.7318 20.4762C32.7531 20.4915 32.7714 20.5067 32.7897 20.525C32.8263 20.3909 32.8293 20.3483 32.7958 20.3909C32.6831 20.4153 32.4515 20.7017 32.3631 20.7809C32.1377 20.982 31.9274 21.2044 31.6867 21.3812C31.3302 21.6462 31.6776 22.2526 32.0402 21.9845L32.028 21.9936Z" fill="#5F97A0"/>
<path d="M39.4533 37.7766C39.755 39.7846 40.2638 42.3775 38.6733 44.0167C37.9085 44.8059 36.7202 44.7419 35.7696 44.3306C34.8768 43.9405 34.2248 42.9716 33.7739 42.1459C33.5331 41.7041 33.2863 41.2623 33.0792 40.8053C32.8415 40.2812 32.68 39.7236 32.4576 39.1935C32.0463 38.2123 31.4612 37.2404 30.8183 36.3933C30.2333 35.6225 29.5843 34.8638 28.8165 34.2696C28.4478 33.9863 28.067 33.6785 27.6313 33.5109C27.1529 33.3281 26.6197 33.3708 26.1383 33.5231C24.1882 34.1417 22.7379 36.439 23.7525 38.4013C23.9597 38.8004 24.563 38.447 24.3558 38.0478C23.8775 37.1246 24.173 36.0033 24.8068 35.2294C25.3583 34.556 26.4887 33.8217 27.3906 34.163C27.8263 34.3275 28.2437 34.681 28.5941 34.9826C29.0024 35.33 29.365 35.7261 29.7123 36.1313C30.4253 36.9601 31.0133 37.8833 31.5252 38.8491C32.0371 39.815 32.29 40.8388 32.7927 41.7864C33.2589 42.6608 33.7403 43.4835 34.4198 44.2148C35.0993 44.946 36.0042 45.2507 36.9548 45.3238C37.9055 45.397 38.7556 45.0466 39.3619 44.3001C40.0444 43.4622 40.3369 42.3866 40.4527 41.3324C40.5167 40.7321 40.4832 40.1685 40.3826 39.5743C40.2729 38.9223 40.2211 38.258 40.1236 37.5999C40.0566 37.1581 39.3832 37.344 39.4503 37.7858L39.4533 37.7766Z" fill="#5F97A0"/>
<path d="M28.2193 39.5317C27.6343 38.9497 26.7659 38.6328 25.9646 38.4896C25.5198 38.4104 25.0749 38.3982 24.627 38.3647C24.1791 38.3312 23.7525 38.2093 23.3138 38.3342C21.8147 38.7669 20.9646 40.726 21.4887 42.149C21.7599 42.8833 22.3388 43.45 22.9116 43.9588C23.5636 44.5377 24.2705 44.8912 25.1602 44.8942C25.5715 44.8942 25.9433 44.8242 26.315 44.6444C26.6867 44.4646 27.0676 44.3366 27.4363 44.163C28.134 43.8278 28.4905 43.0387 28.591 42.3074C28.7129 41.4299 28.5575 40.4153 28.0609 39.6688C27.5642 38.9223 26.7964 38.5841 25.9616 38.5292C25.5137 38.4988 25.5137 39.1995 25.9616 39.227C26.5405 39.2635 27.1255 39.5286 27.4576 40.0192C27.8232 40.5585 27.9481 41.2562 27.9299 41.8991C27.9116 42.4537 27.7318 43.1941 27.2138 43.4927C26.9762 43.6298 26.702 43.6937 26.4521 43.8034C26.12 43.9466 25.8336 44.1477 25.4649 44.1813C24.7519 44.2483 24.1304 44.0563 23.5789 43.6054C23.1096 43.2215 22.6099 42.7675 22.3053 42.2373C21.6989 41.1831 22.2078 39.5835 23.3229 39.0746C23.6977 38.904 24.0664 39.0015 24.4594 39.0442C24.8525 39.0868 25.2608 39.0807 25.6569 39.1386C26.379 39.2452 27.2047 39.4951 27.7318 40.0222C28.0517 40.3391 28.5453 39.8455 28.2254 39.5286L28.2193 39.5317Z" fill="#5F97A0"/>
<path d="M24.7824 41.9722L24.0359 41.89C23.8927 41.8747 23.7525 41.8595 23.6093 41.8443C23.5697 41.8412 23.3473 41.8138 23.3656 41.8351C23.2985 41.759 23.46 41.3598 23.4996 41.2714C23.5758 41.0947 23.6855 40.9302 23.8074 40.787C24.0603 40.4914 24.3863 40.2599 24.7397 40.0923C24.8098 40.0588 25.2516 39.8455 25.2973 39.9003C25.2516 39.8455 25.1633 39.9643 25.1145 39.9887C24.9957 40.0496 24.8708 40.0618 24.7397 40.0405L24.8372 40.4061C25.1145 40.0588 25.4619 39.8211 25.8884 39.6992L25.6112 39.489C25.6325 39.7906 25.602 40.0831 25.5076 40.3726C25.4619 40.5128 25.4009 40.6468 25.3278 40.7748C25.279 40.8571 25.1815 41.0734 25.0993 41.0978L25.2669 41.1191C25.081 41.0338 25.1115 40.7626 25.2303 40.6316C25.3796 40.464 25.6447 40.4884 25.8275 40.5828C26.2754 40.8144 26.3394 41.4482 26.2571 41.89C26.1748 42.3318 25.9341 42.7401 25.5289 42.9351C25.1237 43.1301 24.6575 43.0844 24.3375 42.7858L24.1243 43.1514C24.5447 43.2367 24.9683 43.3586 25.3522 43.5566C25.5076 43.6359 25.6599 43.7242 25.7787 43.8552C25.8488 43.9314 25.861 44.0198 25.9189 44.0959C25.9098 44.1904 25.928 44.2056 25.9768 44.1355C25.925 44.1142 25.8732 44.0929 25.8244 44.0655C25.0962 43.712 24.4625 43.1697 23.9841 42.5176L23.6398 42.7827C23.8897 43.0051 24.3071 43.1118 24.5051 43.3799C24.5661 43.4622 24.6422 43.6419 24.5752 43.7394C24.4533 43.9192 24.1151 43.6206 24.0085 43.5384C23.4082 43.0691 22.9024 42.4963 22.5003 41.8504L22.156 42.1154C22.482 42.3897 22.7897 42.6822 23.0731 43.0021C23.3382 43.3007 23.7769 43.7273 23.6337 44.163L24.0633 44.2209C24.0664 43.5018 24.365 42.798 24.9104 42.3196C24.9469 42.2861 24.9865 42.2526 25.0262 42.2251L24.9987 42.2465C25.0353 42.283 25.0353 42.4201 25.0444 42.475C25.0688 42.6456 25.0901 42.8437 25.0322 43.0112C25.0322 43.0082 24.8616 43.2733 24.9865 43.2306C24.9926 43.2306 25.0566 43.0996 25.081 43.0813C25.1815 43.0082 25.3247 42.9991 25.4162 43.0874L25.4619 42.7431C25.0779 42.9107 24.6026 42.7766 24.3558 42.4415L24.0115 42.7065C24.5173 43.3586 25.209 43.9558 26.0621 43.517C26.9152 43.0783 27.5825 42.3592 28.131 41.6401C28.2894 41.4329 27.9634 41.2196 27.7867 41.375C27.1803 41.9113 26.6502 42.5207 26.1931 43.191C26.1078 43.319 26.2175 43.5414 26.382 43.5201C26.9823 43.4409 27.3753 42.9564 27.4942 42.3836C27.6404 41.6797 27.3723 40.787 27.8446 40.1746L27.5002 39.9095C27.0006 40.9668 26.5039 42.024 26.0042 43.0844C25.9067 43.2916 26.1017 43.4683 26.3028 43.383C26.9213 43.1209 27.1834 42.4536 27.2352 41.826C27.2992 41.0307 27.0432 40.1471 27.549 39.4494L27.1407 39.3397C27.0402 40.4732 25.8762 41.1557 25.2882 42.0301C25.1511 42.2343 25.468 42.4811 25.6325 42.2952C26.3272 41.5061 26.3059 40.269 25.5716 39.5134C25.404 39.3397 25.0871 39.5682 25.2272 39.7785C25.7239 40.5128 26.1322 41.2989 26.4399 42.1307L26.7598 41.8839C26.1962 41.5426 25.9646 40.8205 26.2876 40.2324C26.3698 40.0862 26.4795 39.9521 26.6105 39.8455C26.6563 39.8089 26.7111 39.7663 26.7629 39.7419C26.9061 39.6779 26.9244 39.6749 26.9731 39.8211C27.0828 40.1441 26.772 40.6316 26.6197 40.8906C26.2845 41.4634 25.7452 42.2038 25.0658 42.3836C24.3863 42.5633 23.9354 41.9113 24.0664 41.3019C24.2126 40.6164 24.9347 40.2477 25.5685 40.1471C25.9433 40.0862 26.3546 40.0862 26.7324 40.1319C27.1438 40.1806 27.0006 40.854 26.964 41.1465C26.897 41.695 26.7477 42.4079 26.2906 42.7797C25.992 43.0234 25.602 43.0417 25.2425 42.9473C24.3132 42.7096 23.4539 41.9174 22.9969 41.0917C22.8598 40.8449 22.485 41.0643 22.6191 41.3111C22.8324 41.7041 23.0944 42.1246 23.5027 42.3379C23.911 42.5512 24.4076 42.478 24.7915 42.2099C25.1755 41.9418 25.6081 41.4969 25.7087 41.046C25.8092 40.595 25.4923 40.1685 25.084 40.0192C24.1882 39.6931 23.131 40.4366 22.9146 41.3111C22.811 41.7254 23.0152 42.1551 23.4936 42.0972C23.9719 42.0393 24.3467 41.6005 24.563 41.2136C24.7458 40.8814 24.9683 40.3086 24.7672 39.9399C24.5143 39.4799 23.8257 39.9186 23.5057 40.0801C23.1401 40.266 22.7288 40.592 22.8628 41.0582C22.9878 41.4908 23.4966 41.5396 23.8257 41.3111C24.1547 41.0825 24.4929 40.5767 24.4137 40.1624C24.3193 39.6566 23.8104 39.5652 23.4113 39.7937C23.1706 39.9308 22.9512 40.141 22.7592 40.3421C22.6099 40.4975 22.4454 40.6895 22.5064 40.9211C22.613 41.3293 23.1736 41.3598 23.4875 41.2136C23.8988 41.0216 24.2614 40.4823 24.0786 40.0222C23.9201 39.6231 23.3778 39.5895 23.0731 39.8394C22.6404 40.1989 22.7867 40.8571 23.0182 41.2867C23.2742 41.762 23.6977 42.1063 24.1943 42.3044C24.4564 42.4079 24.5691 41.9844 24.3101 41.8839C23.8531 41.7041 23.4692 41.3263 23.3016 40.8601C23.2254 40.6499 23.1584 40.2873 23.393 40.1502C23.4539 40.1136 23.5819 40.0892 23.6429 40.141C23.7586 40.2355 23.655 40.464 23.5941 40.5615C23.4875 40.7291 23.2894 40.8906 23.0792 40.8632C22.8507 40.8327 23.0609 40.6621 23.1432 40.5798C23.2559 40.4671 23.3747 40.3604 23.5027 40.2629C23.6215 40.1746 23.783 40.0405 23.9171 40.1502C24.0511 40.2599 23.978 40.4153 23.911 40.5432C23.8439 40.6712 23.5301 41.1648 23.326 40.9972C23.0944 40.8083 23.5606 40.5402 23.6825 40.4762C23.7982 40.4153 23.9171 40.3604 24.0359 40.3086C24.0999 40.2812 24.1852 40.2385 24.2553 40.2203C24.3833 40.1837 24.368 40.1654 24.3954 40.2751C24.4442 40.4762 24.2766 40.8235 24.1822 40.9911C24.0572 41.2166 23.8744 41.439 23.652 41.5761C23.5484 41.6401 23.3656 41.7346 23.3168 41.5579C23.2925 41.4664 23.3656 41.308 23.4021 41.2257C23.4996 41.0033 23.6611 40.8053 23.8592 40.6621C24.2187 40.397 25.017 40.1593 25.2516 40.7108C25.3826 41.0155 25.0749 41.3324 24.8829 41.5426C24.691 41.7529 24.4564 41.9601 24.17 42.0149C23.585 42.1337 23.2285 41.5152 22.9939 41.0856L22.616 41.305C23.1736 42.3135 24.3254 43.3433 25.5228 43.4287C26.1078 43.4683 26.6227 43.1788 26.9305 42.6852C27.1681 42.3044 27.29 41.8443 27.3601 41.4055C27.4271 40.9942 27.5368 40.4122 27.3327 40.0222C27.1285 39.6322 26.5618 39.6627 26.1687 39.6627C25.6721 39.6627 25.1694 39.7297 24.7184 39.943C23.9993 40.2842 23.4418 41.0521 23.6581 41.8686C23.8744 42.6852 24.7184 43.0508 25.4801 42.6822C26.3059 42.2861 26.9884 41.3202 27.2992 40.4823C27.4302 40.1319 27.5429 39.4463 27.095 39.2574C26.6928 39.0899 26.2023 39.5743 25.9951 39.8699C25.4405 40.6712 25.7208 41.759 26.5374 42.2556C26.6898 42.3501 26.9274 42.1916 26.8573 42.0088C26.5344 41.1404 26.1169 40.3178 25.599 39.5499L25.2547 39.815C25.8153 40.3939 25.8519 41.372 25.3156 41.9783L25.6599 42.2434C26.3211 41.2654 27.4606 40.6103 27.5734 39.3336C27.5947 39.0959 27.2809 39.0685 27.1651 39.2239C26.7507 39.7906 26.772 40.4975 26.7934 41.1679C26.8147 41.8382 26.7964 42.6944 26.0743 42.999L26.3729 43.2976C26.8726 42.2404 27.3692 41.1831 27.8689 40.1228C27.9664 39.9186 27.6892 39.6474 27.5246 39.8577C27.1559 40.333 27.1133 40.8906 27.1102 41.4725C27.1102 42.0118 27.092 42.9777 26.3698 43.0752L26.5588 43.4043C26.9914 42.7644 27.5033 42.1886 28.0822 41.6767L27.7379 41.4116C27.2687 42.021 26.702 42.5694 26.0591 42.993C25.7361 43.2062 25.4131 43.322 25.0536 43.1209C24.7489 42.9503 24.5173 42.6578 24.3071 42.3897C24.1578 42.1947 23.8165 42.4537 23.9628 42.6547C24.3619 43.2001 25.0475 43.383 25.666 43.1118C25.797 43.0539 25.8001 42.8589 25.7117 42.7675C25.3217 42.3866 24.5356 42.6334 24.5356 43.2184C24.5356 43.5262 24.8129 43.709 25.0932 43.5719C25.3918 43.4256 25.4923 43.0448 25.4923 42.7401C25.4923 42.475 25.474 42.0393 25.2547 41.8565C24.9622 41.6127 24.6301 41.9418 24.432 42.149C23.9049 42.7035 23.6185 43.4439 23.6124 44.2087C23.6124 44.4616 23.9658 44.4981 24.042 44.2666C24.2004 43.7791 23.9171 43.3464 23.6215 42.9777C23.2711 42.5451 22.8781 42.149 22.4515 41.7925C22.2717 41.6432 21.9701 41.8321 22.1072 42.0575C22.3997 42.5268 22.741 42.9655 23.1371 43.3555C23.4631 43.6785 23.9719 44.23 24.4686 44.2209C24.8982 44.2117 25.0871 43.7912 24.9865 43.4134C24.8433 42.8833 24.301 42.7858 23.9323 42.4597C23.7586 42.3074 23.4357 42.5115 23.588 42.7248C23.9293 43.1941 24.3284 43.6023 24.7976 43.9497C25.0322 44.1234 25.2821 44.2788 25.5441 44.4098C25.7483 44.5134 26.0042 44.6474 26.2145 44.4768C26.5862 44.1721 26.1748 43.5962 25.9098 43.3891C25.4405 43.0234 24.8007 42.8345 24.2248 42.7187C24.0237 42.6791 23.8439 42.9259 24.0115 43.0844C24.5112 43.5505 25.2943 43.5993 25.8641 43.2276C26.4978 42.8132 26.7812 42.0058 26.6867 41.2745C26.5953 40.5859 26.0134 39.8668 25.2455 40.1075C24.7123 40.2721 24.4168 41.1739 25.0048 41.4756C25.3674 41.6615 25.6569 41.0795 25.7787 40.8266C25.9829 40.4061 26.0682 39.946 26.0377 39.4799C26.0286 39.3427 25.9067 39.227 25.7605 39.2696C25.2669 39.4098 24.8372 39.687 24.5173 40.0892C24.4259 40.205 24.4351 40.4214 24.6148 40.4549C24.9317 40.5128 25.2547 40.4549 25.5015 40.2385C25.7026 40.0649 25.858 39.7449 25.5959 39.5469C25.3613 39.3671 25.0262 39.4951 24.7854 39.5895C24.4686 39.7145 24.17 39.876 23.9018 40.0862C23.3961 40.4792 23.003 41.0368 22.9299 41.6858C22.8933 42.024 23.0487 42.2099 23.3839 42.2526C23.8439 42.3104 24.3101 42.3561 24.7733 42.4049C25.0536 42.4354 25.0505 41.9997 24.7733 41.9692L24.7824 41.9722Z" fill="#5F97A0"/>
<path d="M26.51 39.5195C26.2723 39.3153 25.989 39.2849 25.6843 39.294C25.3796 39.3031 25.0749 39.3123 24.7733 39.3488C24.1639 39.4189 23.5911 39.5804 23.1035 39.9582L23.4478 40.2233C23.7586 39.6901 24.3558 39.4067 24.9652 39.4799C25.2455 39.5134 25.2394 39.0807 24.9652 39.0442C24.2644 38.9497 23.4905 38.8766 22.8781 39.3062C22.3266 39.6931 22.1011 40.4579 22.1163 41.1069C22.1316 41.7559 22.5216 42.3958 23.201 42.4323C23.8379 42.4658 24.2004 41.8656 24.4259 41.3598C24.5386 41.1069 24.1639 40.8845 24.0481 41.1404C23.8957 41.4756 23.655 42.0423 23.201 41.9966C22.6404 41.9418 22.5094 41.2714 22.5673 40.8205C22.6313 40.3086 22.8141 39.7998 23.3046 39.5652C23.7952 39.3306 24.4229 39.4128 24.9683 39.4829V39.0472C24.2126 38.9558 23.4539 39.3519 23.0731 40.007C22.939 40.2385 23.2315 40.4153 23.4174 40.2721C23.8043 39.9704 24.2979 39.8455 24.7794 39.7906C25.0201 39.7632 25.2608 39.751 25.5045 39.7419C25.7208 39.7358 26.0316 39.681 26.2084 39.8363C26.4216 40.0192 26.7324 39.7114 26.5161 39.5286L26.51 39.5195Z" fill="#5F97A0"/>
<path d="M24.5661 41.5822L24.5783 41.9722C24.5813 42.0789 24.6575 42.1703 24.7641 42.1825C24.8799 42.1977 24.9591 42.1276 25.0018 42.0271C25.1663 41.634 25.2364 41.1983 25.212 40.7748C25.1968 40.531 24.8647 40.4823 24.7885 40.7169C24.7336 40.8814 24.6879 41.0521 24.6483 41.2196C24.6087 41.3872 24.563 41.5761 24.56 41.7559C24.5569 41.9357 24.627 42.1307 24.7915 42.2282C24.9469 42.3196 25.1633 42.3165 25.2882 42.1733C25.3613 42.088 25.3796 41.9509 25.2882 41.8686C25.2059 41.7955 25.0627 41.7772 24.9835 41.8686C24.9652 41.89 24.9835 41.8717 24.9957 41.8656C24.9622 41.8869 25.0262 41.8565 25.0018 41.8656C24.9744 41.8747 25.0444 41.8626 25.017 41.8656C24.9896 41.8686 25.0597 41.8747 25.0292 41.8656C25.0231 41.8656 25.0201 41.8656 25.014 41.8625C24.9987 41.8565 25.0048 41.8625 25.0292 41.8717C25.0231 41.8717 25.0079 41.8595 25.0018 41.8565C25.014 41.8595 25.0322 41.8778 25.0079 41.8595C24.9865 41.8443 25.0079 41.8534 25.0109 41.8686C25.0109 41.8626 24.9896 41.8199 24.9957 41.8443C25.0018 41.8656 24.9926 41.826 24.9896 41.8229C24.9896 41.8168 24.9835 41.7803 24.9865 41.8016C24.9896 41.8229 24.9865 41.7833 24.9865 41.7803C24.9865 41.7498 24.9865 41.7193 24.9896 41.6858C24.9896 41.6706 24.9926 41.6584 24.9896 41.6797C24.9896 41.6615 24.9957 41.6462 24.9987 41.6279C25.0444 41.3598 25.1145 41.0917 25.1968 40.8327L24.7733 40.7748C24.7794 40.8723 24.7794 40.9698 24.7733 41.0704C24.7733 41.1221 24.7672 41.177 24.7611 41.2288C24.7611 41.2288 24.7519 41.2989 24.758 41.2623C24.755 41.2897 24.7489 41.3141 24.7458 41.3415C24.7123 41.5396 24.6544 41.7315 24.5783 41.9143L25.0018 41.9722L24.9896 41.5822C24.9865 41.4695 24.8921 41.3629 24.7733 41.3659C24.6544 41.3689 24.5539 41.4604 24.5569 41.5822H24.5661Z" fill="#5F97A0"/>
<path d="M27.5764 40.7748C27.6983 41.375 27.7867 42.0058 27.351 42.4994C26.9975 42.8985 26.5009 43.1362 26.0255 43.3555L26.2449 43.7334C26.772 43.4439 27.3174 43.1392 27.7227 42.6822C28.1279 42.2251 28.3686 41.6736 28.2924 41.0856C28.2803 41.0003 28.2346 40.8906 28.131 40.8753C27.8476 40.8327 27.6953 41.049 27.6617 41.308C27.6221 41.6066 27.6221 41.9052 27.5917 42.2038C27.5429 42.6304 27.357 43.1483 26.8726 43.2245L27.1499 43.4348C27.1529 43.3799 27.159 43.3281 27.162 43.2733C27.1834 42.993 26.7477 42.993 26.7263 43.2733C26.7233 43.3281 26.7172 43.3799 26.7141 43.4348C26.702 43.5902 26.8634 43.6663 26.9914 43.645C27.4515 43.5719 27.7684 43.1727 27.9177 42.7553C28.0091 42.5024 28.0304 42.2282 28.0487 41.9661C28.0578 41.826 28.0639 41.6858 28.0761 41.5426C28.0822 41.4786 28.0853 41.4086 28.0974 41.3446C28.1005 41.3263 28.1127 41.305 28.1127 41.2897C28.1127 41.2623 28.1431 41.2867 28.1035 41.2897H27.9878L28.0182 41.2958L27.8567 41.0856C28.003 42.2251 26.8756 42.8863 26.0255 43.3555C25.7757 43.4927 25.9951 43.8491 26.2449 43.7334C26.7873 43.4805 27.357 43.1971 27.7349 42.7187C27.9421 42.4537 28.07 42.1551 28.1096 41.8199C28.1553 41.4329 28.0761 41.0399 27.9999 40.659C27.9451 40.3848 27.5216 40.5006 27.5795 40.7748H27.5764Z" fill="#5F97A0"/>
<path d="M27.3327 40.2599C26.9061 39.6992 26.3272 39.2849 25.6538 39.0716C25.5411 39.035 25.4162 39.1142 25.3857 39.2239C25.3522 39.3428 25.4253 39.4555 25.538 39.492C26.0895 39.6657 26.6075 40.0253 26.9579 40.4823C27.028 40.5768 27.1468 40.6255 27.2565 40.5615C27.3479 40.5067 27.4058 40.3574 27.3357 40.2629L27.3327 40.2599Z" fill="#5F97A0"/>
</svg>
