<svg width="64" height="64" viewBox="0 0 64 64" fill="none" xmlns="http://www.w3.org/2000/svg">
<circle cx="32" cy="32" r="32" fill="#E4F7F9"/>
<path d="M29.1525 28.4516C29.1578 27.6682 29.261 26.9192 29.1631 26.1358C29.0652 25.3524 29.089 24.5161 29.0652 23.701C29.0413 22.8858 29.0122 22.1183 29.0069 21.327C29.0016 20.5356 28.9275 19.7522 28.8773 18.9609C28.8587 18.646 28.4909 18.5666 28.3109 18.8074C27.8742 19.3976 27.3052 19.8449 26.5615 19.911C25.6749 19.9931 24.8068 20.1545 23.936 20.3451C23.6979 20.398 23.6634 20.6918 23.8011 20.8532C24.2483 21.3693 24.7327 21.8298 25.1085 22.4068C25.5108 23.0234 25.9342 23.6269 26.3339 24.2462C26.7335 24.8655 27.0723 25.4821 27.4057 26.1173C27.7392 26.7525 28.1177 27.34 28.4273 27.9699C28.5994 28.3193 29.1234 28.0123 28.9514 27.6629C28.6417 27.033 28.2553 26.4349 27.9298 25.8103C27.5751 25.1381 27.2046 24.4685 26.7891 23.8333C26.3736 23.1981 25.9739 22.6159 25.569 22.0045C25.1641 21.3931 24.685 20.9511 24.2298 20.4245L24.0948 20.9326C24.6453 20.8135 25.1985 20.6944 25.7569 20.6097C26.1407 20.5515 26.5324 20.5409 26.9161 20.48C27.7207 20.3557 28.3638 19.7443 28.8323 19.1144L28.2659 18.9609C28.3135 19.7311 28.3903 20.4933 28.3956 21.2661C28.4009 22.0786 28.43 22.8911 28.4538 23.701C28.4776 24.5108 28.4432 25.2836 28.5438 26.075C28.6444 26.8663 28.5438 27.6471 28.5411 28.4516C28.5411 28.8433 29.1472 28.8433 29.1472 28.4516H29.1525Z" fill="#5F97A0"/>
<path d="M23.6687 20.7394C23.1527 21.1232 22.7636 21.6207 22.3137 22.0733C21.8638 22.5259 21.3477 22.9731 20.6913 22.9652C20.4822 22.9652 20.2837 23.2352 20.4293 23.4231C20.6357 23.693 20.8766 23.8968 21.1571 24.0874C21.4985 24.3203 21.8293 24.577 22.1787 24.7967C22.8668 25.2307 23.6449 25.5589 24.3727 25.9188C25.1006 26.2788 25.7569 26.7128 26.445 27.131C27.1728 27.5729 27.8848 28.052 28.5464 28.5892C28.8481 28.8327 29.2795 28.4066 28.9752 28.1605C28.3665 27.6656 27.7207 27.2157 27.0564 26.7975C26.3921 26.3793 25.7119 25.9188 25.0026 25.5562C24.2933 25.1937 23.6026 24.8681 22.9092 24.5108C22.5439 24.3229 22.2158 24.0927 21.8849 23.8545C21.5541 23.6163 21.1968 23.4337 20.956 23.1187L20.694 23.5766C22.2052 23.5925 22.9145 22.0574 23.9784 21.2661C24.288 21.0358 23.9863 20.5092 23.6714 20.7421L23.6687 20.7394Z" fill="#5F97A0"/>
<path d="M20.4161 23.4072C20.1302 24.2118 19.8126 25.0084 19.5533 25.8235C19.2939 26.6387 18.979 27.3692 18.6825 28.1473C18.6111 28.3352 18.7937 28.531 18.9763 28.531C20.5854 28.5443 22.1946 28.4649 23.8037 28.4728C24.6109 28.4781 25.4155 28.5469 26.2227 28.5575C27.0299 28.5681 27.8768 28.5098 28.7052 28.5098C29.0969 28.5098 29.0969 27.9038 28.7052 27.9038C27.8768 27.9038 27.0511 27.9646 26.2227 27.9514C25.3943 27.9382 24.6083 27.8694 23.8037 27.8667C22.1946 27.8588 20.5881 27.9382 18.9763 27.9249L19.2701 28.3087C19.5665 27.5306 19.8867 26.779 20.1408 25.985C20.3949 25.191 20.7178 24.3758 21.0036 23.5686C21.1333 23.2008 20.5484 23.042 20.4187 23.4072H20.4161Z" fill="#5F97A0"/>
<path d="M19.1722 28.7639C20.514 28.793 21.8479 28.8883 23.1897 28.9492C24.5315 29.0101 25.9157 28.9386 27.2787 28.9571C27.9933 28.9677 28.7158 28.8936 29.4277 28.9968C30.1 29.0947 30.7484 29.1318 31.4259 29.1371C32.1035 29.1424 32.7889 29.1212 33.4718 29.1133C34.1546 29.1053 34.8348 29.1609 35.5149 29.1821C37.0606 29.2297 38.6062 29.2271 40.1518 29.2641L39.8474 28.9598C39.8792 30.8283 38.6353 32.5115 37.0844 33.4511C35.5335 34.3906 33.6464 34.6897 31.8653 34.7664C30.0841 34.8432 28.1838 34.8882 26.3392 34.8035C25.4605 34.7638 24.5765 34.7135 23.6952 34.695C22.9012 34.6791 22.1893 34.4224 21.6494 33.8189C21.0354 33.1308 20.7416 32.1516 20.4293 31.302C20.0799 30.3466 19.7385 29.3568 19.4686 28.3749C19.3654 27.9991 18.7805 28.1578 18.8837 28.5363C19.1536 29.5182 19.495 30.508 19.8444 31.4635C20.1435 32.2786 20.4319 33.1785 20.9401 33.893C21.4191 34.5679 22.1152 35.0761 22.9356 35.2296C23.2665 35.2931 23.5973 35.2957 23.9334 35.3037C24.468 35.3196 25.0026 35.3593 25.5372 35.3778C26.5244 35.4095 27.5116 35.4492 28.4988 35.4651C29.486 35.481 30.4837 35.4228 31.4736 35.3857C33.4479 35.3143 35.417 35.0337 37.1823 34.0889C38.9476 33.144 40.4906 31.0956 40.4535 28.9571C40.4509 28.7904 40.3159 28.6581 40.1491 28.6528C39.4504 28.6369 38.7491 28.5919 38.0504 28.6078C37.3861 28.621 36.7324 28.6236 36.0681 28.5945C35.3667 28.5628 34.6654 28.5363 33.964 28.5098C33.3024 28.486 32.6434 28.5416 31.9817 28.531C31.2645 28.5204 30.5446 28.5495 29.8353 28.4437C29.1631 28.3431 28.5147 28.3325 27.8371 28.3431C27.1596 28.3537 26.4741 28.3405 25.794 28.3299C25.1138 28.3193 24.431 28.3855 23.7481 28.3616C22.221 28.3061 20.7019 28.1843 19.1748 28.1526C18.7831 28.1446 18.7831 28.7507 19.1748 28.7586L19.1722 28.7639Z" fill="#5F97A0"/>
<path d="M44.3758 24.6432C43.3912 24.6379 42.367 24.4182 41.3904 24.6114C40.6176 24.7649 40.2603 25.3816 39.678 25.8368C38.2833 26.9298 36.7297 27.8006 35.3244 28.8724C34.586 29.4362 33.8714 30.0502 33.1039 30.5689C32.294 31.1167 31.5424 31.7175 30.7696 32.3157C30.3885 32.6121 30.01 32.9138 29.6289 33.2076C29.2187 33.5252 28.7687 33.7872 28.3532 34.0995C28.0277 34.343 27.726 34.6156 27.4163 34.8802C27.0246 35.2137 26.6038 35.5075 26.191 35.8171C25.7781 36.1268 25.4076 36.5132 25.0185 36.8784C24.6295 37.2436 24.1928 37.5559 23.7799 37.8894C23.367 38.2229 22.8933 38.5299 22.4645 38.8713C22.0358 39.2127 21.6441 39.5912 21.2286 39.9405C21.0168 40.1178 21.1968 40.454 21.4429 40.4593C22.0808 40.4725 22.716 40.5228 23.3538 40.5122C23.9916 40.5016 24.6189 40.491 25.2541 40.4963C25.8892 40.5016 26.5218 40.499 27.1543 40.4963C27.7869 40.4937 28.422 40.4328 29.0546 40.4169C30.3276 40.3852 31.6165 40.3111 32.8895 40.3666C34.1625 40.4222 35.4197 40.2581 36.6847 40.184C36.9203 40.1708 37.1214 39.8426 36.8991 39.6653C36.0204 38.9613 35.1021 38.3049 34.234 37.5877C33.8185 37.2436 33.4532 36.8466 33.0351 36.5052C32.6169 36.1638 32.1432 35.8356 31.7065 35.4889C31.4048 35.2481 30.9707 35.6742 31.2777 35.9177C31.7144 36.2644 32.1749 36.582 32.6063 36.934C33.0377 37.286 33.3897 37.6724 33.8052 38.0164C34.6733 38.7337 35.5917 39.39 36.4704 40.094L36.6847 39.5753C35.4197 39.6494 34.1572 39.8135 32.8895 39.7579C31.6218 39.7023 30.3276 39.7764 29.0546 39.8082C28.4194 39.8241 27.7895 39.8849 27.1543 39.8876C26.5191 39.8902 25.8866 39.8929 25.2541 39.8876C24.6215 39.8823 23.989 39.8929 23.3538 39.9035C22.7186 39.9141 22.0808 39.8638 21.4429 39.8505L21.6573 40.3693C22.0146 40.0676 22.356 39.7473 22.7133 39.4456C23.0706 39.1439 23.4808 38.8872 23.8593 38.5961C24.2378 38.3049 24.6136 37.9953 24.9894 37.6936C25.3652 37.3918 25.6775 37.0584 26.0216 36.7328C26.3392 36.4311 26.7044 36.1876 27.0564 35.9283C27.4507 35.6371 27.8213 35.3222 28.1944 35.002C28.8773 34.4144 29.6501 33.9513 30.3594 33.3955C31.1454 32.7762 31.9103 32.1119 32.7334 31.5402C33.0933 31.2888 33.4718 31.0612 33.8211 30.7965C34.2075 30.5054 34.5754 30.1904 34.9592 29.8967C35.7081 29.3276 36.4545 28.7639 37.2538 28.2637C37.9604 27.8217 38.6379 27.3242 39.3181 26.8425C39.6383 26.6149 39.9639 26.3899 40.2629 26.1358C40.562 25.8818 40.7896 25.5139 41.1337 25.326C41.5677 25.0904 42.15 25.1328 42.6237 25.154C43.2086 25.1804 43.7909 25.2413 44.3758 25.2439C44.7675 25.2439 44.7675 24.6379 44.3758 24.6379V24.6432Z" fill="#5F97A0"/>
<path d="M24.9709 40.0093C24.3251 39.7129 23.5046 39.6468 22.8298 39.8902C22.3428 40.0649 21.7949 40.3693 21.4244 40.7424C20.5299 41.6449 20.8183 43.135 21.4853 44.0878C22.266 45.202 23.6079 45.329 24.8385 45.0564C25.442 44.9241 26.0083 44.6303 26.3471 44.0957C26.6859 43.5611 26.7097 42.9577 26.6171 42.3754C26.4636 41.3882 25.8707 40.4672 24.9682 40.012C24.6215 39.8347 24.3119 40.3587 24.6612 40.536C25.2964 40.8563 25.741 41.4359 25.9342 42.1054C26.1857 42.9656 26.0613 43.9581 25.1376 44.3365C24.2775 44.6885 23.068 44.7521 22.3243 44.1248C22.012 43.8601 21.8214 43.5081 21.6758 43.1323C21.4774 42.6215 21.3503 42.0552 21.5964 41.5338C21.8055 41.0892 22.2819 40.8271 22.7001 40.6075C23.285 40.3005 24.0525 40.2581 24.6612 40.536C25.0132 40.6975 25.3229 40.1734 24.9682 40.012L24.9709 40.0093Z" fill="#5F97A0"/>
<path d="M36.6503 40.3481C36.0628 40.0861 35.4779 39.9749 34.848 39.877C34.324 39.795 33.8582 39.7738 33.3685 39.9988C32.8339 40.2422 32.3655 40.6366 32.0505 41.1368C31.7038 41.6899 31.6191 42.3198 31.7276 42.955C31.8891 43.9025 32.4978 44.8341 33.4162 45.1967C34.3345 45.5593 35.4011 45.1596 36.0945 44.4768C36.9785 43.6061 37.2035 42.1637 36.9626 40.9833C36.8859 40.5995 36.2983 40.7636 36.3777 41.1447C36.5471 41.9705 36.4254 42.955 35.9702 43.6722C35.5679 44.3048 34.7607 44.8209 33.9931 44.7256C33.2256 44.6303 32.6645 43.9634 32.4343 43.2779C32.2649 42.775 32.2093 42.2113 32.429 41.7138C32.6328 41.2506 33.006 40.888 33.4426 40.6419C33.8423 40.4169 34.1916 40.3878 34.6495 40.4593C35.2317 40.5492 35.7981 40.6313 36.3433 40.8748C36.698 41.0336 37.005 40.5095 36.6503 40.3507V40.3481Z" fill="#5F97A0"/>
<path d="M26.3842 43.4235C27.3158 43.4049 28.2421 43.3494 29.171 43.3202C30.1 43.2911 31.0289 43.2752 31.9579 43.2594C32.347 43.2514 32.3496 42.6454 31.9579 42.6533C31.0289 42.6692 30.1 42.6851 29.171 42.7142C28.2421 42.7433 27.3158 42.7989 26.3842 42.8174C25.9951 42.8253 25.9925 43.4314 26.3842 43.4235Z" fill="#5F97A0"/>
<path d="M24.7644 29.4679C24.558 29.2906 24.3119 29.2641 24.0472 29.2721C23.7825 29.28 23.5179 29.2879 23.2559 29.3197C22.7265 29.3806 22.229 29.5208 21.8055 29.849L22.1046 30.0793C22.3746 29.6161 22.8933 29.37 23.4226 29.4335C23.6661 29.4626 23.6608 29.0868 23.4226 29.055C22.8139 28.973 22.1416 28.9095 21.6097 29.2827C21.1306 29.6188 20.9348 30.2831 20.948 30.8468C20.9613 31.4105 21.3 31.9663 21.8902 31.9981C22.4434 32.0272 22.7583 31.5058 22.9542 31.0665C23.0521 30.8468 22.7265 30.6536 22.626 30.8759C22.4936 31.167 22.2846 31.6593 21.8902 31.6196C21.4032 31.572 21.2894 30.9897 21.3397 30.598C21.3953 30.1534 21.5541 29.7114 21.9802 29.5076C22.4063 29.3038 22.9515 29.3753 23.4253 29.4362V29.0577C22.7689 28.9783 22.1099 29.3224 21.7791 29.8914C21.6626 30.0925 21.9167 30.246 22.0781 30.1216C22.4142 29.8596 22.843 29.7511 23.2612 29.7035C23.4702 29.6796 23.6793 29.6691 23.8911 29.6611C24.079 29.6558 24.3489 29.6082 24.5024 29.7432C24.6877 29.902 24.9576 29.6347 24.7697 29.4759L24.7644 29.4679Z" fill="#5F97A0"/>
<path d="M25.5531 30.1851C27.2417 29.9443 28.9355 29.7723 30.6372 29.6611C30.8781 29.6452 30.8834 29.28 30.6372 29.2827L23.0785 29.3144L23.1288 29.6876C25.8151 29.2906 28.5358 29.153 31.2486 29.2668V28.8883C28.1759 28.973 25.1058 29.0603 22.0331 29.145V29.5235C25.352 29.407 28.6708 29.3409 31.9923 29.325L31.942 28.9518C30.4096 29.4891 28.7476 29.6082 27.1464 29.7961C25.5452 29.984 23.8858 30.1507 22.2528 30.2937C22.012 30.3148 22.0067 30.6854 22.2528 30.6721C25.7066 30.516 29.1631 30.3572 32.6169 30.201V29.8226C29.6686 30.0872 26.7229 30.3519 23.7746 30.6165V30.995C26.2862 30.7356 28.8084 30.6139 31.3333 30.6271V30.2487C29.2451 30.4869 27.1517 30.6457 25.0529 30.7251C24.8094 30.7356 24.8068 31.1035 25.0529 31.1035C27.6175 31.1247 30.1847 31.1485 32.7492 31.1697V30.7912C30.1714 31.0374 27.591 31.2861 25.0132 31.5323C24.775 31.5561 24.7644 31.9107 25.0132 31.9107C27.4507 31.9213 29.8856 31.9293 32.3231 31.9398V31.5614C29.965 31.7837 27.6042 31.961 25.2408 32.0933C25 32.1066 24.9947 32.4718 25.2408 32.4718C27.501 32.4877 29.7639 32.5062 32.0241 32.5221V32.1436C30.3567 32.3368 28.6893 32.5327 27.022 32.7259C26.7864 32.7524 26.7706 33.0991 27.022 33.1043C28.3532 33.1388 29.6818 33.1705 31.0131 33.2049V32.8265C29.3245 32.98 27.6386 33.1361 25.9501 33.2896C25.7066 33.3108 25.7066 33.6469 25.9501 33.6681C27.4031 33.7951 28.8534 33.9195 30.3064 34.0465V33.6681C28.6867 33.7078 27.067 33.7501 25.4446 33.7898C25.2408 33.7951 25.1747 34.1286 25.3943 34.163C26.4106 34.3218 27.4322 34.4382 28.4564 34.515V34.1365L24.5289 34.0015C24.2828 33.9936 24.288 34.3641 24.5289 34.38L25.8548 34.4753C26.0983 34.4938 26.0957 34.1154 25.8548 34.0968C24.8306 34.0121 23.8064 33.9301 22.7821 33.8454V34.2239C23.4517 34.1577 24.1001 34.0015 24.7247 33.7475C24.9206 33.6681 24.8968 33.3928 24.6744 33.3743C23.8117 33.3028 22.9515 33.234 22.0887 33.1626L22.139 33.5357C23.1474 33.3664 24.1557 33.197 25.1641 33.0276C25.3943 32.9879 25.307 32.6782 25.1138 32.6544C24.1292 32.538 23.1394 32.4718 22.1496 32.4559L22.1999 32.8291C22.8986 32.6994 23.5629 32.4586 24.1848 32.1172C24.3304 32.0378 24.2907 31.8155 24.1398 31.7705C23.3114 31.5243 22.4698 31.3496 21.615 31.2385L21.6653 31.6117C22.4487 31.4555 23.232 31.2994 24.0154 31.1432C24.2113 31.1035 24.1795 30.8336 24.0154 30.778C23.2717 30.5266 22.4963 30.4286 21.7129 30.4922L21.7632 30.8653C22.2105 30.7965 22.6498 30.6933 23.0812 30.5557C23.2453 30.5027 23.277 30.2222 23.0812 30.1904C22.3137 30.0634 21.5409 29.9972 20.7601 29.9999L20.8104 30.3731L21.7473 30.1269C21.9299 30.0793 21.9246 29.812 21.7473 29.7617C21.2603 29.6188 20.7654 29.5156 20.2626 29.4467L20.3076 29.7934L20.7442 29.5711C20.9004 29.4917 20.8422 29.2747 20.6992 29.2244C20.6172 29.1953 20.5352 29.1662 20.4531 29.1397L20.4028 29.5129C20.7813 29.4838 21.1598 29.452 21.5409 29.4229C21.7817 29.4044 21.787 29.0471 21.5409 29.0445L20.4319 29.0233C20.1858 29.018 20.1911 29.3885 20.4319 29.4018C21.5223 29.4679 22.6154 29.497 23.7084 29.4944C23.9546 29.4944 23.9519 29.1265 23.7084 29.1159C22.7821 29.0683 21.8558 29.0206 20.9322 28.973V29.3515C22.8059 29.28 24.6824 29.3409 26.5509 29.4864L26.5006 29.1133C24.5606 29.4017 22.618 29.6902 20.6781 29.9787C20.4637 30.0105 20.5193 30.3572 20.7284 30.3519C22.4513 30.3148 24.1742 30.2778 25.8972 30.2407V29.8623C24.6374 29.984 23.375 30.0687 22.1072 30.1137C21.8638 30.1216 21.8611 30.4974 22.1072 30.4922C23.5443 30.4683 24.9788 30.4419 26.4159 30.418L26.3656 30.0449C24.9179 30.246 23.4729 30.4445 22.0252 30.6457C21.8055 30.6774 21.8717 31.0082 22.0755 31.0188C23.8037 31.0982 25.5319 31.1776 27.2602 31.257V30.8786C25.876 30.9765 24.4971 31.1273 23.1235 31.3258C22.9145 31.3549 22.9621 31.7228 23.1738 31.699C24.3569 31.5693 25.5478 31.4952 26.7388 31.4793L26.6885 31.1062C24.9603 31.6222 23.2056 32.0351 21.4297 32.3448C21.2206 32.3818 21.2656 32.7391 21.48 32.7179C22.2581 32.6385 23.0283 32.5036 23.7852 32.3051L23.5999 31.9875L23.3511 32.276H23.6185C23.2082 31.871 22.8324 31.4396 22.491 30.9738C22.3746 30.8177 22.057 30.9024 22.1443 31.1194L22.5651 32.1807L22.8827 31.9954C22.2105 31.2782 21.5356 30.5636 20.8633 29.8464C20.7416 29.7167 20.4716 29.8517 20.5457 30.0316C20.8951 30.8706 21.3688 31.6328 21.9723 32.3157C22.1125 32.4745 22.401 32.2601 22.2713 32.0854C21.8664 31.5508 21.4641 31.0135 21.0592 30.4789C20.9295 30.3042 20.6781 30.4075 20.7125 30.6245C20.8686 31.5878 21.2365 32.493 21.7949 33.2896C21.9352 33.4908 22.2263 33.3187 22.1231 33.0991C21.5567 31.8843 20.8872 30.7224 20.117 29.6214C20.0058 29.4626 19.7835 29.5288 19.7624 29.7167C19.6988 30.3386 20.1329 30.9712 20.4134 31.4979C20.7522 32.133 21.1227 32.7471 21.5197 33.3478C21.6309 33.5146 21.9537 33.4114 21.8664 33.2023C21.6176 32.6015 21.3583 32.0139 20.9242 31.5243C20.7813 31.3655 20.506 31.5746 20.6251 31.7546C21.2021 32.6121 21.7764 33.4722 22.3534 34.3297C22.3957 34.3932 22.4884 34.4488 22.5678 34.4171C24.4045 33.6945 26.0401 32.5936 27.6254 31.437C27.8186 31.2967 27.6492 30.9818 27.4349 31.1088C26.5165 31.6514 25.6325 32.2468 24.7803 32.8873L25.0582 33.1017C25.1482 32.8397 25.1826 32.5803 25.1641 32.3051C25.1535 32.1304 24.9709 32.0695 24.8412 32.1701C24.4257 32.4956 24.0922 32.89 23.8355 33.3505C23.7349 33.5331 23.9863 33.7475 24.1345 33.5807C24.5871 33.0726 25.0397 32.5644 25.4896 32.0589C25.6325 31.8975 25.4552 31.6593 25.2593 31.7599C24.4336 32.1939 23.6634 32.7153 22.9515 33.3161C22.8483 33.4034 22.9012 33.549 22.9912 33.6151C24.0895 34.4197 25.6219 34.0783 26.2968 32.9059C26.3921 32.7391 26.2015 32.5565 26.0374 32.6465C25.5399 32.9191 25.0741 33.2367 24.6321 33.594C24.4495 33.7395 24.6824 33.9698 24.8624 33.893C25.7225 33.5146 26.5826 33.1361 27.4428 32.7603L27.2125 32.4612C26.76 32.9561 26.2412 33.3717 25.6563 33.7051C25.442 33.8269 25.6325 34.1445 25.8469 34.0333C26.535 33.6734 27.2231 33.3161 27.9112 32.9561C28.1018 32.8556 27.9695 32.5512 27.7657 32.6094C26.5747 32.9482 25.397 33.3293 24.2351 33.7581C24.0551 33.8242 24.0551 34.0571 24.2351 34.1233C25.307 34.515 26.4 34.8405 27.5143 35.0919L27.5645 34.7188C26.797 34.6658 26.0295 34.6129 25.262 34.5573L24.1742 34.4806C23.7825 34.4541 23.367 34.4568 23.0044 34.2847L22.9092 34.6394C25.5055 34.8405 28.123 34.552 30.6161 33.7978L30.5155 33.4325C29.351 33.8586 28.1283 34.0386 26.9055 34.2106C26.7256 34.2371 26.7229 34.552 26.9055 34.5759C28.7423 34.8246 30.5843 34.6844 32.4211 34.5309L32.3708 34.1577C31.8785 34.3297 31.3836 34.5044 30.8913 34.6764C30.7008 34.7426 30.7166 35.0628 30.9416 35.0496C32.6381 34.9517 34.3213 34.7055 35.9728 34.3086L35.8722 33.9433C35.2318 34.2 34.5701 34.3853 33.8899 34.515L33.9905 34.8802C36.3857 34.3694 38.458 32.6703 39.4213 30.4154L39.0746 30.2698C38.9105 30.6721 38.7464 31.0771 38.5824 31.4793C38.4977 31.6884 38.8153 31.7916 38.9291 31.6249C39.2863 31.0956 39.596 30.5398 39.858 29.9549C39.9559 29.7352 39.6622 29.5526 39.5298 29.7643C39.2625 30.1957 39.0217 30.6404 38.8047 31.1009L39.1514 31.2464C39.2255 30.8891 39.3022 30.5318 39.3763 30.1719C39.4002 30.0608 39.3234 29.9205 39.1937 29.9311C36.5815 30.1481 33.9587 30.209 31.3386 30.1084L31.3889 30.4816C32.556 30.0211 33.7549 29.6532 34.9803 29.3806C35.1894 29.3329 35.1444 29.0021 34.93 29.0074C33.4347 29.0524 31.942 29.0947 30.4467 29.1397C30.2032 29.1477 30.2032 29.5261 30.4467 29.5182C32.7572 29.4626 35.0677 29.4785 37.3755 29.5605V29.1821C35.8246 29.28 34.271 29.3065 32.7175 29.2641V29.6426C34.3981 29.6347 36.0813 29.6267 37.7619 29.6161L37.7116 29.243C36.1925 29.5314 34.6627 29.7723 33.1277 29.9602C32.8922 29.9893 32.8763 30.3439 33.1277 30.3386C35.1629 30.2963 37.1982 30.201 39.2281 30.0555L39.1778 29.6823C36.9468 30.0396 34.7077 30.3386 32.4608 30.5768L32.511 30.95C33.8793 30.7065 35.2582 30.553 36.6477 30.4922L36.5974 30.119C35.1682 30.6298 33.6914 30.995 32.1882 31.2094L32.2887 31.5746C33.8423 31.3338 35.3932 31.0903 36.9468 30.8494L36.8462 30.4842C34.9089 31.0638 32.9716 31.6434 31.0342 32.223C30.796 32.2945 30.8993 32.6253 31.1348 32.5883L36.3592 31.7652L36.2586 31.3999C34.4801 32.1092 32.6593 32.7074 30.8066 33.1917L30.9522 33.5384C31.7938 33.0779 32.6698 32.6941 33.5829 32.3924L33.3977 32.0748C32.871 32.5406 32.3046 32.9535 31.6985 33.3161C31.4842 33.4458 31.6721 33.7369 31.8891 33.6443C32.7334 33.2817 33.6041 32.9853 34.4933 32.7497L34.3081 32.4321C33.7073 33.0858 33.0113 33.6204 32.2252 34.0307L32.4158 34.3588C33.7179 33.6098 35.0174 32.8635 36.3195 32.1145L36.0893 31.8155C35.5017 32.4401 34.8665 33.017 34.1863 33.541C33.9984 33.6866 34.1572 33.991 34.3769 33.8692C35.3111 33.3531 36.1819 32.7338 36.9812 32.0245C37.1664 31.8604 36.8991 31.6037 36.7138 31.7572C36.1263 32.2389 35.5679 32.7471 35.0359 33.287C34.8903 33.4352 35.0888 33.7184 35.2662 33.586L37.8625 31.6223L37.6322 31.3232C37.087 31.8684 36.5815 32.4453 36.1104 33.0541C35.9649 33.242 36.2004 33.4987 36.3777 33.3214C37.1267 32.5856 37.8281 31.8049 38.4818 30.9844L38.1827 30.7542C37.8492 31.302 37.5369 31.8657 37.2511 32.4401C37.1585 32.6253 37.394 32.8344 37.5502 32.6703C38.233 31.9584 38.847 31.1882 39.3896 30.3651C39.506 30.1878 39.2334 29.9708 39.0905 30.1349C38.5876 30.7145 38.0848 31.2914 37.5819 31.871L37.881 32.1013C38.2542 31.3126 38.6247 30.5239 38.9979 29.7352C39.0852 29.55 38.8576 29.3382 38.6988 29.505C38.008 30.2354 37.3146 30.9659 36.6239 31.6937L36.9229 31.924C37.2961 31.4105 37.6693 30.8997 38.0424 30.3863C38.1801 30.1957 37.8969 30.0369 37.7434 30.156C37.0261 30.7118 36.3513 31.3126 35.7187 31.961L35.986 32.2283C36.6186 31.4899 37.2855 30.7859 37.9895 30.1137C38.1668 29.9443 37.9048 29.6876 37.7222 29.8464C37.0685 30.4101 36.3963 30.9527 35.7028 31.4687L35.9887 31.6328C35.9119 31.0162 36.5815 30.5583 36.6186 29.9364C36.6265 29.7961 36.4492 29.6955 36.3327 29.7723C35.4541 30.3492 34.578 30.9262 33.6994 31.5032L33.0536 31.9266C32.8763 32.0431 32.519 32.3792 32.3814 32.0563C32.2993 31.8631 32.3311 31.5032 32.3125 31.2914C32.2887 31.0135 32.2649 30.733 32.2411 30.4551C32.2305 30.3175 32.0876 30.2116 31.9553 30.291C30.931 30.9156 29.9491 31.5984 29.0043 32.3395C28.8296 32.4745 29.0519 32.7391 29.2345 32.6385C30.4202 31.9716 31.59 31.2835 32.7466 30.5663C32.9557 30.4366 32.7731 30.1322 32.556 30.2381C30.8463 31.0691 29.1578 31.9398 27.4878 32.8476L27.6783 33.1758C29.3139 32.223 30.984 31.3338 32.6884 30.5107C32.8789 30.418 32.7439 30.0846 32.5428 30.164C30.9866 30.77 29.396 31.2729 27.7763 31.6752L27.9218 32.0219C29.0784 31.3047 30.28 30.6695 31.5265 30.1216C31.725 30.0343 31.5821 29.714 31.3809 29.7749C29.3801 30.3731 27.3634 30.9183 25.3308 31.4105L25.4764 31.7572C26.707 31.1856 27.9721 30.6933 29.2663 30.2778C29.4966 30.2037 29.3986 29.8358 29.1657 29.9125C27.8424 30.3386 26.5482 30.8468 25.2858 31.4317C25.0847 31.5243 25.2302 31.8287 25.4314 31.7784C27.4613 31.2861 29.478 30.7409 31.4815 30.1428L31.3359 29.7961C30.0894 30.3439 28.8878 30.9791 27.7313 31.6964C27.5487 31.8102 27.6651 32.096 27.8768 32.0431C29.4966 31.6408 31.0872 31.1379 32.6434 30.5318L32.4978 30.1851C30.7934 31.0082 29.1234 31.8975 27.4878 32.8503C27.2761 32.9747 27.464 33.2949 27.6783 33.1785C29.3484 32.2707 31.0369 31.3999 32.7466 30.5689L32.556 30.2407C31.3995 30.9553 30.2297 31.6461 29.044 32.313L29.2742 32.6121C30.1926 31.8922 31.1507 31.2279 32.1485 30.6218L31.8626 30.4577C31.8917 30.8018 31.9208 31.1459 31.95 31.4873C31.9711 31.7413 31.9526 32.0457 32.0452 32.2892C32.2226 32.7576 32.7095 32.6015 33.0298 32.3951C34.1996 31.6408 35.3588 30.8653 36.5233 30.0978L36.2375 29.9337C36.1978 30.5636 35.5202 30.958 35.6076 31.6302C35.6234 31.7546 35.7637 31.8896 35.8934 31.7943C36.6133 31.2597 37.312 30.6986 37.9895 30.1137L37.7222 29.8464C37.0182 30.5186 36.3513 31.2226 35.7187 31.961C35.5626 32.1436 35.814 32.4056 35.986 32.2283C36.6186 31.5799 37.2961 30.9791 38.0107 30.4233L37.7116 30.1931C37.3384 30.7065 36.9653 31.2173 36.5921 31.7308C36.4651 31.9054 36.743 32.1145 36.8912 31.961C37.5819 31.2306 38.2753 30.5001 38.9661 29.7723L38.667 29.542C38.2939 30.3307 37.9233 31.1194 37.5502 31.9081C37.4655 32.0881 37.6957 32.313 37.8492 32.1383C38.3521 31.5587 38.8549 30.9818 39.3578 30.4022L39.0587 30.1719C38.5321 30.9685 37.9392 31.7122 37.2802 32.4004L37.5793 32.6306C37.8651 32.0563 38.1774 31.4926 38.5109 30.9447C38.6194 30.7647 38.3495 30.5424 38.2118 30.7145C37.5555 31.5349 36.8541 32.313 36.1078 33.0514L36.3751 33.3187C36.8462 32.71 37.3543 32.133 37.8969 31.5878C38.0424 31.4396 37.8439 31.1564 37.6666 31.2888L35.0703 33.2526L35.3006 33.5516C35.8325 33.0117 36.3936 32.5009 36.9785 32.0219L36.7112 31.7546C35.9357 32.4427 35.0915 33.0382 34.1837 33.541L34.3743 33.8692C35.0809 33.3267 35.7425 32.7338 36.3539 32.0854C36.4995 31.9293 36.3142 31.6778 36.1237 31.7863C34.8215 32.5353 33.522 33.2817 32.2199 34.0307C32.0082 34.1524 32.1961 34.47 32.4105 34.3588C33.223 33.9327 33.9508 33.3743 34.5701 32.6994C34.6971 32.5618 34.5727 32.3315 34.3848 32.3818C33.4638 32.628 32.5666 32.9403 31.6906 33.3161L31.8811 33.6443C32.5137 33.2658 33.1065 32.8317 33.657 32.3448C33.7973 32.2204 33.6491 31.969 33.4718 32.0272C32.5296 32.3395 31.6218 32.7338 30.7511 33.2102C30.5605 33.3134 30.6902 33.6098 30.8966 33.5569C32.7492 33.0726 34.5701 32.4718 36.3486 31.7652C36.5762 31.6752 36.4915 31.3602 36.248 31.3999L31.0237 32.223L31.1242 32.5883C33.0615 32.0087 34.9988 31.429 36.9362 30.8494C37.1744 30.778 37.0711 30.4472 36.8356 30.4842C35.282 30.7251 33.7311 30.9685 32.1776 31.2094C31.9367 31.2464 32.0399 31.609 32.2781 31.5746C33.7814 31.3602 35.2556 30.995 36.6874 30.4842C36.8779 30.4154 36.8647 30.1005 36.6371 30.111C35.2159 30.1746 33.8026 30.3334 32.3999 30.5821C32.1908 30.6192 32.2358 30.9765 32.4502 30.9553C34.7315 30.7145 37.005 30.4101 39.2678 30.0475C39.4769 30.0131 39.4293 29.6585 39.2175 29.6744C37.1876 29.8199 35.1524 29.9152 33.1171 29.9575V30.336C34.6866 30.1454 36.248 29.902 37.8016 29.6055C38.0133 29.5658 37.9604 29.2324 37.7513 29.2324C36.0707 29.2403 34.3875 29.2482 32.7069 29.2588C32.4634 29.2588 32.4634 29.632 32.7069 29.6373C34.2604 29.6796 35.814 29.6532 37.3649 29.5553C37.6084 29.5394 37.611 29.1847 37.3649 29.1768C35.0571 29.0947 32.7466 29.0789 30.4361 29.1344V29.5129C31.9314 29.4679 33.4241 29.4256 34.9195 29.3806L34.8692 29.0074C33.6438 29.28 32.4449 29.6479 31.2777 30.1084C31.0845 30.1851 31.103 30.4736 31.328 30.4816C33.9481 30.5795 36.5709 30.5213 39.1831 30.3042L39.0005 30.0634C38.9264 30.4207 38.8497 30.778 38.7756 31.1379C38.7332 31.3364 39.027 31.4899 39.1223 31.2835C39.3366 30.823 39.5801 30.3783 39.8474 29.9469L39.5192 29.7564C39.2572 30.3413 38.9502 30.8971 38.5903 31.4264L38.937 31.572C39.1011 31.1697 39.2652 30.7648 39.4293 30.3625C39.5087 30.164 39.1673 30.0184 39.0826 30.2169C38.1536 32.3898 36.1898 34.0148 33.8767 34.507C33.6358 34.5573 33.7391 34.9173 33.9773 34.8723C34.6548 34.7426 35.3164 34.5573 35.9596 34.3006C36.1819 34.2133 36.1025 33.8772 35.859 33.9354C34.2393 34.3244 32.5904 34.5679 30.9284 34.6632L30.9787 35.0364C31.4709 34.8643 31.9658 34.6897 32.4581 34.5176C32.646 34.4515 32.6354 34.1259 32.4078 34.1445C30.6081 34.298 28.7899 34.4488 26.9929 34.2027V34.5679C28.2156 34.3959 29.4383 34.2159 30.6028 33.7898C30.8278 33.7078 30.7378 33.3531 30.5023 33.4246C28.0383 34.1709 25.4631 34.4515 22.8986 34.253C22.7133 34.2397 22.6339 34.5256 22.8033 34.6076C23.4597 34.9199 24.2854 34.8643 24.9947 34.9146C25.8469 34.9728 26.6991 35.0337 27.5513 35.0919C27.763 35.1078 27.8107 34.7664 27.6016 34.7188C26.4874 34.4673 25.3943 34.1418 24.3225 33.7501V34.1154C25.4843 33.6866 26.662 33.3055 27.853 32.9667L27.7075 32.62C27.0193 32.98 26.3312 33.3372 25.6431 33.6972L25.8337 34.0254C26.445 33.6787 26.9929 33.242 27.4666 32.7232C27.6201 32.5565 27.4296 32.3395 27.2364 32.4242C26.3762 32.8026 25.5161 33.1811 24.6559 33.5569L24.8862 33.856C25.3017 33.5199 25.7463 33.2261 26.2148 32.9694L25.9554 32.71C25.3732 33.7184 24.1001 33.9645 23.1685 33.2817L23.2082 33.5807C23.8963 32.9985 24.6427 32.5009 25.4393 32.0828L25.2091 31.7837C24.7565 32.2918 24.3039 32.8 23.854 33.3055L24.1531 33.5357C24.3966 33.1017 24.7089 32.7365 25.1006 32.4321L24.7777 32.2971C24.7935 32.5406 24.7644 32.7603 24.685 32.9932C24.6347 33.1414 24.8306 33.3081 24.9629 33.2076C25.8151 32.5671 26.6991 31.9716 27.6175 31.429L27.4269 31.1009C25.8707 32.2363 24.2616 33.332 22.4592 34.0412L22.6736 34.1286C22.0967 33.2711 21.5223 32.4109 20.9454 31.5534L20.6463 31.7837C21.0354 32.223 21.2683 32.7576 21.4906 33.2949L21.8373 33.1493C21.4853 32.6174 21.1545 32.0748 20.8475 31.5164C20.6993 31.2464 20.5563 30.9738 20.4187 30.6959C20.2626 30.3783 20.0932 30.0713 20.1302 29.7088L19.7756 29.804C20.5431 30.905 21.2127 32.0669 21.7817 33.2817L22.1099 33.0911C21.5673 32.3157 21.2153 31.4502 21.0645 30.516L20.7178 30.6615C21.1227 31.1961 21.525 31.7334 21.9299 32.268L22.229 32.0378C21.6732 31.4079 21.2233 30.6986 20.9004 29.9231L20.5828 30.1084C21.255 30.8256 21.9299 31.5402 22.6022 32.2574C22.7265 32.3898 22.9912 32.2521 22.9198 32.0722L22.4989 31.0109L22.1522 31.1564C22.5122 31.6461 22.9065 32.1066 23.3379 32.5353C23.4067 32.6041 23.5391 32.6147 23.6052 32.5353L23.854 32.2469C23.9731 32.1066 23.8619 31.879 23.6687 31.9293C22.9436 32.1198 22.2078 32.2548 21.4641 32.3289L21.5144 32.7021C23.2903 32.3924 25.045 31.9795 26.7732 31.4635C26.9743 31.4026 26.9426 31.0876 26.7229 31.0903C25.5319 31.1062 24.3436 31.1803 23.1579 31.31L23.2082 31.6831C24.5474 31.4899 25.8945 31.347 27.2443 31.2491C27.4878 31.2306 27.4904 30.8812 27.2443 30.8706C25.5161 30.7912 23.7878 30.7118 22.0596 30.6324L22.1099 31.0056C23.5576 30.8045 25.0026 30.606 26.4503 30.4048C26.6647 30.3757 26.6091 30.029 26.4 30.0316C24.9629 30.0555 23.5285 30.0819 22.0914 30.1057V30.4842C23.3564 30.4392 24.6189 30.3545 25.8813 30.2328C26.1195 30.209 26.1301 29.849 25.8813 29.8543C24.1584 29.8914 22.4354 29.9284 20.7125 29.9655L20.7628 30.3386C22.7027 30.0502 24.6453 29.7617 26.5853 29.4732C26.8103 29.4388 26.7335 29.1159 26.535 29.1C24.6639 28.9545 22.7901 28.8936 20.9163 28.9651C20.6728 28.973 20.6728 29.3329 20.9163 29.3435C21.8426 29.3912 22.7689 29.4388 23.6926 29.4864V29.108C22.5995 29.1106 21.5065 29.0815 20.4161 29.0153V29.3938L21.525 29.415V29.0365C21.1465 29.0656 20.7681 29.0974 20.387 29.1265C20.1726 29.1424 20.1302 29.4282 20.3367 29.4997C20.4187 29.5288 20.5008 29.5579 20.5828 29.5844L20.5378 29.2377L20.1011 29.46C19.9661 29.5288 19.982 29.7855 20.1461 29.8067C20.649 29.8755 21.1439 29.9787 21.6309 30.1216V29.7564L20.694 30.0025C20.4875 30.0555 20.5299 30.3757 20.7442 30.3757C21.4879 30.3757 22.229 30.4313 22.9647 30.553V30.1878C22.5333 30.3254 22.094 30.4286 21.6467 30.4974C21.4377 30.5292 21.4853 30.8865 21.697 30.8706C22.4487 30.8097 23.1844 30.8997 23.8963 31.1432V30.778C23.113 30.9341 22.3296 31.0903 21.5462 31.2464C21.3159 31.2914 21.4032 31.5931 21.5964 31.6196C22.4169 31.7281 23.2268 31.9028 24.0207 32.1383L23.9757 31.7916C23.3803 32.1198 22.7477 32.3421 22.0808 32.4665C21.8664 32.5062 21.9246 32.8344 22.1311 32.8397C23.1235 32.8556 24.1107 32.9217 25.0953 33.0382L25.045 32.665C24.0366 32.8344 23.0283 33.0038 22.0199 33.1732C21.7949 33.2102 21.8717 33.5305 22.0702 33.5463C22.933 33.6178 23.7931 33.6866 24.6559 33.7581L24.6056 33.3849C24.0128 33.6257 23.4014 33.7819 22.7636 33.848C22.5228 33.8719 22.5175 34.208 22.7636 34.2265C23.7878 34.3112 24.8121 34.3932 25.8363 34.4779V34.0995L24.5104 34.0042V34.3827L28.4379 34.5176C28.6841 34.5256 28.6788 34.155 28.4379 34.1392C27.4454 34.0651 26.4583 33.9539 25.4764 33.8004L25.4261 34.1736C27.0458 34.1339 28.6655 34.0915 30.2879 34.0518C30.534 34.0465 30.5287 33.6945 30.2879 33.6734C28.8349 33.5463 27.3846 33.4219 25.9316 33.2949V33.6734C27.6201 33.5199 29.306 33.3637 30.9945 33.2102C31.2354 33.189 31.2433 32.837 30.9945 32.8317C29.6633 32.7973 28.3347 32.7656 27.0035 32.7312V33.1096C28.6708 32.9164 30.3382 32.7206 32.0055 32.5274C32.2411 32.5009 32.257 32.1489 32.0055 32.1489C29.7453 32.133 27.4825 32.1145 25.2223 32.0986V32.4771C27.5857 32.3448 29.9465 32.1674 32.3046 31.9451C32.5428 31.9213 32.5534 31.5667 32.3046 31.5667C29.8671 31.5561 27.4322 31.5481 24.9947 31.5376V31.916C27.5725 31.6699 30.1529 31.4211 32.7307 31.175C32.9689 31.1512 32.9795 30.7965 32.7307 30.7965C30.1662 30.7753 27.5989 30.7515 25.0344 30.7303V31.1088C27.1331 31.0268 29.2293 30.868 31.3148 30.6324C31.5503 30.606 31.5662 30.254 31.3148 30.254C28.7899 30.2407 26.2677 30.3625 23.7561 30.6218C23.5152 30.6457 23.5126 31.0241 23.7561 31.0003C26.7044 30.7356 29.6501 30.471 32.5984 30.2063C32.8366 30.1851 32.8445 29.8146 32.5984 29.8279C29.1446 29.984 25.6881 30.1428 22.2343 30.2989V30.6774C23.9122 30.5318 25.5849 30.3625 27.2575 30.1666C28.9302 29.9708 30.5049 29.8596 32.0267 29.325C32.2226 29.2562 32.1987 28.9518 31.9764 28.9518C28.6549 28.9677 25.3361 29.0339 22.0173 29.1503C21.7738 29.1583 21.7711 29.5367 22.0173 29.5288C25.09 29.4441 28.16 29.3568 31.2327 29.2721C31.4762 29.2641 31.4762 28.9042 31.2327 28.8936C28.4829 28.7772 25.7331 28.9254 23.0124 29.3276C22.798 29.3594 22.8536 29.7008 23.0627 29.7008C25.5822 29.6902 28.1018 29.6796 30.6214 29.6691V29.2906C28.8852 29.4017 27.157 29.5817 25.4367 29.8279C25.1958 29.8623 25.299 30.2275 25.5372 30.1931L25.5531 30.1851Z" fill="#5F97A0"/>
<path d="M33.4665 30.6298C33.6808 30.9421 33.8979 31.2544 34.1122 31.5693C34.1678 31.6514 34.2816 31.6964 34.3716 31.6381C34.4536 31.5852 34.4986 31.4661 34.4404 31.3788C34.226 31.0665 34.009 30.7542 33.7946 30.4392C33.7391 30.3572 33.6253 30.3122 33.5353 30.3704C33.4532 30.4233 33.4082 30.5424 33.4665 30.6298Z" fill="#5F97A0"/>
<path d="M31.6059 32.9853C31.3492 33.0117 31.0978 33.0594 30.8516 33.1335C30.6558 33.1943 30.6796 33.5278 30.9019 33.5066C31.7224 33.4272 32.5481 33.3531 33.3712 33.4458L33.3209 33.0726C32.4846 33.2605 31.6377 33.3796 30.7802 33.4299C30.5367 33.4431 30.5367 33.8242 30.7802 33.8083C31.6694 33.7581 32.5534 33.6337 33.4215 33.4378C33.6464 33.3875 33.5697 33.0885 33.3712 33.0646C32.5481 32.972 31.7224 33.0461 30.9019 33.1255L30.9522 33.4987C31.1666 33.4325 31.3836 33.3875 31.6059 33.3637C31.7091 33.3531 31.7938 33.2843 31.7965 33.1732C31.7965 33.0779 31.7091 32.972 31.6059 32.9826V32.9853Z" fill="#5F97A0"/>
<path d="M30.4626 33.9804C32.4422 33.893 34.4166 33.6998 36.3777 33.4034L36.2772 33.0382L31.6721 33.8613C31.4577 33.901 31.5133 34.2318 31.7224 34.2344C32.8339 34.245 33.9429 34.2556 35.0544 34.2662V33.8877C34.2816 33.9883 33.5088 34.0068 32.7334 33.9513L32.7836 34.3244C34.4325 33.8295 36.0866 33.3214 37.5978 32.4771C37.8122 32.358 37.6216 32.0351 37.4073 32.1489C36.6662 32.5486 35.9013 32.8979 35.1153 33.197C34.885 33.2843 34.975 33.5993 35.2159 33.5622C35.7902 33.4749 36.3433 33.3267 36.8832 33.1149L36.7377 32.7682C36.0866 33.0858 35.4355 33.4034 34.7871 33.7237C34.6257 33.8031 34.6945 34.0995 34.8824 34.0783C36.0496 33.9354 37.2643 33.6099 38.2833 33.0038C38.7703 32.7127 38.9846 32.3289 39.1778 31.8102C39.4134 31.1856 39.7204 30.598 40.0909 30.0449C40.1809 29.9099 40.03 29.7167 39.8765 29.767C39.3605 29.939 38.8417 30.1084 38.3256 30.2804L38.5109 30.598C38.7994 30.2248 39.1355 29.9125 39.5325 29.6558C39.7363 29.5235 39.5537 29.2033 39.3419 29.3276C39.2493 29.3832 39.1567 29.4388 39.064 29.4917C38.8867 29.5976 39.0058 29.9231 39.2096 29.8384L39.686 29.6399C39.8633 29.5658 39.8712 29.2509 39.6357 29.2668C38.323 29.3647 37.0235 29.5738 35.7478 29.8967C35.5123 29.9575 35.6102 30.3228 35.8484 30.2619C37.0923 29.947 38.3547 29.7405 39.633 29.6452L39.5828 29.2721L39.1064 29.4706L39.2519 29.8173C39.3446 29.7617 39.4372 29.7061 39.5298 29.6532L39.3393 29.325C38.9158 29.5976 38.5506 29.9284 38.2409 30.3254C38.1351 30.4604 38.2251 30.7092 38.4262 30.643C38.9423 30.471 39.461 30.3016 39.9771 30.1296L39.7627 29.8517C39.4478 30.3175 39.1805 30.8097 38.9608 31.3285C38.7411 31.8472 38.6168 32.3607 38.0874 32.6756C37.1294 33.2473 35.9781 33.5649 34.8798 33.6998L34.975 34.0545C35.6261 33.7369 36.2772 33.4193 36.9256 33.0991C37.1161 33.0064 36.9812 32.673 36.78 32.7524C36.2401 32.9641 35.687 33.1123 35.1127 33.1996L35.2132 33.5649C36.031 33.2552 36.825 32.8926 37.5952 32.4798L37.4046 32.1516C35.9225 32.98 34.3001 33.4749 32.6804 33.9618C32.4687 34.0254 32.5216 34.3191 32.7307 34.335C33.5062 34.3932 34.279 34.3721 35.0518 34.2715C35.2873 34.2424 35.3032 33.8957 35.0518 33.893C33.9402 33.8825 32.8313 33.8719 31.7197 33.8613L31.77 34.2344L36.3751 33.4114C36.6186 33.369 36.5127 33.0091 36.2745 33.0461C34.3478 33.3373 32.4078 33.5225 30.4626 33.6098C30.2191 33.6204 30.2191 33.9989 30.4626 33.9883V33.9804Z" fill="#5F97A0"/>
<path d="M31.3412 29.7776C30.5234 29.8279 29.7083 29.8728 28.8878 29.8331L28.9381 30.2063C31.0369 29.8437 33.1515 29.5923 35.2767 29.452V29.0736C33.8979 29.2085 32.5163 29.3435 31.1375 29.4811C30.8966 29.505 30.894 29.8834 31.1375 29.8596C32.5163 29.7246 33.8979 29.5897 35.2767 29.452C35.5149 29.4282 35.5229 29.0577 35.2767 29.0736C33.1171 29.2165 30.9681 29.4732 28.8376 29.8411C28.6179 29.8781 28.6841 30.2037 28.8878 30.2143C29.7056 30.254 30.5234 30.209 31.3412 30.1587C31.5847 30.1428 31.5847 29.7643 31.3412 29.7802V29.7776Z" fill="#5F97A0"/>
<path d="M19.7332 29.1291C20.1091 29.2033 20.4849 29.2482 20.8686 29.2588C21.1121 29.2641 21.1121 28.8857 20.8686 28.8804C20.604 28.8724 20.342 28.8645 20.0773 28.8565V29.235C21.3106 29.2535 22.5439 29.2218 23.7746 29.1397C24.0181 29.1239 24.0181 28.7454 23.7746 28.7613C22.5439 28.8407 21.3106 28.8724 20.0773 28.8565C19.8338 28.8539 19.8338 29.2297 20.0773 29.235C20.342 29.243 20.604 29.2509 20.8686 29.2588V28.8804C20.5193 28.8724 20.1779 28.8327 19.8338 28.7639C19.5956 28.7163 19.4924 29.0815 19.7332 29.1291Z" fill="#5F97A0"/>
<path d="M27.718 32.0034C28.8111 32.6465 29.9412 33.2287 31.1004 33.7475L31.1454 33.4008C30.8304 33.5304 30.5076 33.6178 30.1714 33.6654C30.0762 33.6787 30.0047 33.811 30.0391 33.8983C30.1397 34.1524 30.3673 34.1815 30.6108 34.2212C30.931 34.2741 31.2513 34.3244 31.5715 34.3774V34.0121C31.1375 34.0704 30.7034 34.1286 30.2694 34.1868C29.9121 34.2344 29.523 34.2344 29.2266 34.4621C29.0837 34.5706 29.216 34.777 29.3616 34.7849C30.0576 34.8273 30.7511 34.822 31.4445 34.7638C31.6906 34.7426 31.688 34.4091 31.4445 34.3853C31.1877 34.3588 30.931 34.3535 30.6717 34.3641C30.4282 34.3747 30.4282 34.7558 30.6717 34.7426C30.931 34.7294 31.1877 34.7373 31.4445 34.7638V34.3853C30.7511 34.4435 30.055 34.4515 29.3616 34.4065L29.4966 34.7294C29.621 34.6314 29.8115 34.6261 29.9624 34.605C30.1476 34.5785 30.3355 34.5547 30.5208 34.5309C30.9046 34.4779 31.291 34.4276 31.6747 34.3747C31.8573 34.3509 31.8547 34.0386 31.6747 34.0095C31.4365 33.9698 31.201 33.9327 30.9628 33.893C30.8569 33.8745 30.7484 33.8586 30.6425 33.8401C30.5923 33.8322 30.5393 33.8269 30.489 33.8136C30.4626 33.8057 30.3991 33.7713 30.407 33.7951L30.2747 34.028C30.6108 33.9804 30.9337 33.893 31.2486 33.7634C31.3783 33.7104 31.4603 33.4908 31.2936 33.4166C30.1344 32.8979 29.0069 32.3157 27.9112 31.6725C27.6995 31.5481 27.509 31.8763 27.7207 32.0007L27.718 32.0034Z" fill="#5F97A0"/>
<path d="M34.8321 42.2431C34.5833 42.1584 34.3028 42.1002 34.0514 42.2034C33.9217 42.2563 33.8132 42.3357 33.7338 42.4548C33.6835 42.5289 33.657 42.6215 33.6782 42.7089C33.6994 42.7962 33.7629 42.8624 33.8396 42.9021C34.0646 43.0185 34.361 42.9815 34.5727 42.8571C34.6813 42.7936 34.7898 42.7009 34.8427 42.5845C34.885 42.4919 34.893 42.3886 34.8401 42.2986C34.7951 42.2192 34.7183 42.1743 34.6363 42.1451C34.3928 42.0552 34.099 42.0896 33.8793 42.2245C33.8052 42.2695 33.7391 42.3304 33.7179 42.4177C33.6914 42.5236 33.7364 42.6242 33.8105 42.6983C33.8952 42.7856 34.017 42.8465 34.1361 42.865C34.271 42.8862 34.4113 42.873 34.5304 42.7962C34.6363 42.7274 34.713 42.6215 34.7474 42.4998C34.8215 42.2325 34.6627 41.9255 34.3663 41.9043C34.1996 41.8937 34.054 42.0128 33.9799 42.1557C33.9058 42.2986 33.8899 42.4522 33.919 42.6083C33.9746 42.8888 34.2366 43.1085 34.5119 43.1535C34.5727 43.1641 34.6257 43.1588 34.676 43.1191C34.7236 43.082 34.7501 43.0291 34.7501 42.9709C34.7501 42.7221 34.6892 42.4813 34.5807 42.2589C34.5383 42.169 34.4034 42.1372 34.3213 42.1901C34.2287 42.2484 34.2075 42.3542 34.2525 42.4495C34.2578 42.4627 34.2657 42.4733 34.271 42.4866C34.271 42.4892 34.2869 42.521 34.279 42.5024C34.2684 42.4786 34.2869 42.521 34.2869 42.5263C34.2896 42.5368 34.2949 42.5474 34.2975 42.558C34.316 42.6057 34.3293 42.6559 34.3425 42.7062C34.3478 42.73 34.3531 42.7539 34.3584 42.7777C34.3584 42.7883 34.361 42.7989 34.3637 42.8094C34.369 42.8465 34.3637 42.7936 34.3637 42.8147C34.369 42.8677 34.3716 42.918 34.3716 42.9709L34.6124 42.7883C34.5727 42.783 34.5357 42.7724 34.4986 42.7592C34.4907 42.7592 34.4669 42.7433 34.4907 42.7565C34.5145 42.7697 34.4907 42.7565 34.4828 42.7512C34.4642 42.7406 34.4457 42.7327 34.4298 42.7195C34.4192 42.7142 34.4113 42.7062 34.4007 42.7009C34.3795 42.6877 34.4245 42.7221 34.406 42.7062C34.3928 42.693 34.3795 42.6824 34.3663 42.6692C34.361 42.6639 34.3531 42.6559 34.3478 42.648C34.3425 42.6427 34.3266 42.6189 34.3398 42.6401C34.3584 42.6639 34.3319 42.6268 34.3319 42.6268C34.3266 42.6162 34.3187 42.6083 34.3134 42.5977C34.3081 42.5898 34.3054 42.5818 34.3001 42.5739C34.2869 42.5501 34.3107 42.6057 34.3028 42.5818C34.2975 42.5633 34.2922 42.5474 34.2869 42.5289C34.2869 42.521 34.2763 42.5024 34.279 42.4945C34.279 42.4945 34.2816 42.5421 34.279 42.5051C34.279 42.4839 34.279 42.4627 34.279 42.4442C34.279 42.4363 34.279 42.4257 34.279 42.4177C34.279 42.3913 34.271 42.4522 34.279 42.4283C34.2843 42.4098 34.2896 42.3886 34.2949 42.3701C34.2975 42.3595 34.3001 42.3357 34.2896 42.378C34.2896 42.3701 34.2975 42.3595 34.3001 42.3542C34.3054 42.3463 34.3081 42.3383 34.3134 42.3304C34.316 42.3251 34.3372 42.2934 34.3213 42.3172C34.3028 42.3463 34.3478 42.2801 34.3531 42.2854C34.3531 42.2854 34.316 42.3119 34.3478 42.2907C34.3557 42.2854 34.3795 42.2775 34.3398 42.2907C34.3504 42.2854 34.3742 42.2881 34.3293 42.2907C34.3557 42.2907 34.3293 42.2828 34.3187 42.2854C34.3213 42.2854 34.3425 42.2907 34.3451 42.2907C34.361 42.296 34.3637 42.296 34.3478 42.2907C34.3346 42.2854 34.3346 42.2854 34.3478 42.2934C34.361 42.3145 34.3663 42.2775 34.3425 42.2881C34.3425 42.2881 34.361 42.3039 34.3584 42.3039C34.3742 42.3198 34.3504 42.3145 34.3504 42.2907C34.3504 42.2934 34.361 42.3066 34.3637 42.3092C34.3637 42.3119 34.3716 42.3278 34.3743 42.3278C34.3584 42.3172 34.361 42.2907 34.3663 42.3119C34.3663 42.3198 34.3716 42.3251 34.3716 42.3331C34.3716 42.3383 34.3716 42.3436 34.3743 42.3489C34.3769 42.3648 34.3743 42.3569 34.3716 42.3251C34.369 42.3383 34.3716 42.3569 34.3716 42.3701C34.3716 42.3754 34.369 42.3886 34.3716 42.3939C34.3637 42.3675 34.3795 42.3569 34.3716 42.378C34.3663 42.3939 34.3637 42.4072 34.3584 42.423C34.3504 42.4548 34.3584 42.4125 34.3637 42.4098C34.361 42.4098 34.3504 42.4363 34.3478 42.4389C34.3478 42.4416 34.3346 42.4574 34.3346 42.4574C34.3346 42.4442 34.361 42.4283 34.3425 42.4469C34.3372 42.4522 34.3107 42.4707 34.3107 42.4786C34.3134 42.4627 34.3425 42.4574 34.3213 42.4707C34.3134 42.476 34.3054 42.4786 34.3001 42.4839C34.2684 42.5051 34.3107 42.4786 34.3107 42.4813C34.3107 42.4866 34.2816 42.4918 34.2737 42.4918C34.2657 42.4918 34.2578 42.4945 34.2499 42.4971C34.2155 42.5051 34.2578 42.4945 34.2631 42.4971C34.2525 42.4919 34.2234 42.4971 34.2128 42.4971H34.1863C34.1863 42.5024 34.2287 42.5051 34.1916 42.4971C34.1731 42.4919 34.1546 42.4866 34.1361 42.4813C34.1017 42.4707 34.144 42.4813 34.144 42.4866C34.144 42.4839 34.1255 42.476 34.1202 42.476C34.1122 42.4707 34.1043 42.468 34.0964 42.4627C34.0964 42.4627 34.0567 42.4363 34.0831 42.4548C34.1069 42.4707 34.0646 42.4336 34.0593 42.431C34.0408 42.4151 34.0752 42.4574 34.0646 42.4363C34.0514 42.4125 34.0567 42.431 34.0752 42.4892L34.0593 42.5474C34.0514 42.566 34.0408 42.5633 34.0302 42.5765C34.0355 42.5686 34.0514 42.5633 34.062 42.558C34.0778 42.5474 34.0964 42.5395 34.1149 42.5315C34.1202 42.5289 34.1493 42.5183 34.1255 42.5263C34.1017 42.5342 34.1308 42.5263 34.1361 42.5236C34.1599 42.5157 34.1837 42.5077 34.2075 42.5024C34.226 42.4971 34.2472 42.4945 34.2657 42.4918C34.2922 42.4866 34.2313 42.4918 34.2604 42.4918C34.271 42.4918 34.279 42.4918 34.2896 42.4918C34.3107 42.4918 34.3346 42.4918 34.3557 42.4918C34.3663 42.4918 34.3743 42.4918 34.3848 42.4918C34.3901 42.4918 34.4325 42.4971 34.4034 42.4918C34.3769 42.4866 34.4087 42.4918 34.414 42.4918C34.4245 42.4918 34.4325 42.4945 34.4431 42.4971C34.4642 42.5024 34.4854 42.5104 34.5066 42.5157C34.533 42.5236 34.4986 42.5104 34.4986 42.5104C34.5039 42.5104 34.5172 42.5263 34.5225 42.5236C34.5198 42.5236 34.4907 42.4919 34.5145 42.5183C34.5013 42.5024 34.4907 42.4892 34.4881 42.468C34.4854 42.4522 34.4907 42.4389 34.4933 42.4257L34.4986 42.4177C34.4986 42.4177 34.4907 42.4363 34.4854 42.4442C34.4801 42.4574 34.4801 42.4707 34.4881 42.4442C34.4881 42.4495 34.4722 42.4627 34.4695 42.4654C34.4563 42.4786 34.4431 42.4919 34.4298 42.5024C34.4272 42.5051 34.4113 42.5157 34.4087 42.521L34.4245 42.5077C34.4245 42.5077 34.4113 42.5183 34.4034 42.5236C34.3875 42.5342 34.3742 42.5421 34.3584 42.5527C34.3478 42.558 34.316 42.566 34.3107 42.5765C34.3107 42.5739 34.3531 42.5607 34.3187 42.5739C34.3107 42.5765 34.3028 42.5792 34.2922 42.5818C34.271 42.5898 34.2499 42.5951 34.226 42.6004C34.2181 42.6004 34.2075 42.603 34.1996 42.6057C34.1758 42.6109 34.1996 42.6136 34.2102 42.6057C34.2022 42.6136 34.1678 42.6083 34.1572 42.6083C34.1387 42.6083 34.1202 42.6083 34.1043 42.6083C34.1043 42.6083 34.0805 42.6083 34.0778 42.6083C34.1043 42.6109 34.1096 42.6136 34.0937 42.6083C34.0858 42.6083 34.0805 42.6083 34.0752 42.6057C34.054 42.6004 34.0328 42.5951 34.009 42.5898C33.9799 42.5818 34.017 42.5951 34.017 42.5951C34.0117 42.5951 33.9773 42.5686 34.0037 42.5898L34.0117 42.5977C34.0223 42.6242 34.0434 42.6533 34.0328 42.6851C34.0223 42.7168 34.0249 42.6983 34.0328 42.6877C34.0355 42.6824 34.0461 42.6559 34.054 42.6533C34.0434 42.6559 34.0328 42.6798 34.0487 42.6612C34.0567 42.6506 34.0672 42.6427 34.0752 42.6321C34.0778 42.6295 34.0937 42.6162 34.0937 42.6136C34.062 42.6374 34.0937 42.6215 34.0937 42.6136C34.1122 42.6004 34.1308 42.5898 34.1519 42.5792C34.1572 42.5765 34.1837 42.5607 34.1599 42.5739C34.1361 42.5871 34.1678 42.5712 34.1758 42.5686C34.1969 42.5607 34.2181 42.5554 34.2419 42.5501C34.2499 42.5501 34.2604 42.5474 34.2684 42.5448C34.3134 42.5342 34.226 42.5448 34.271 42.5448C34.324 42.5421 34.3743 42.5448 34.4298 42.5448C34.4007 42.5395 34.4589 42.5448 34.4298 42.5448C34.4431 42.5474 34.4589 42.5501 34.4722 42.5527C34.5013 42.558 34.5278 42.566 34.5542 42.5712C34.6098 42.5871 34.6627 42.603 34.7183 42.6215C34.8109 42.6533 34.93 42.5845 34.9512 42.4892C34.975 42.3833 34.9195 42.2907 34.8189 42.2563L34.8321 42.2431Z" fill="#5F97A0"/>
<path d="M23.6264 41.9996C23.4729 42.0605 23.3353 42.1663 23.2638 42.3198C23.1844 42.4919 23.1632 42.7142 23.3114 42.8571C23.5682 43.1032 23.9969 42.9709 24.161 42.6851C24.2457 42.5368 24.2563 42.3542 24.1769 42.1981C24.1319 42.1107 24.0472 42.0419 23.9546 42.0155C23.8461 41.9864 23.7402 42.0102 23.6396 42.0525C23.4888 42.116 23.367 42.2298 23.2717 42.3595C23.1659 42.5024 23.0627 42.73 23.2029 42.8836C23.2744 42.9629 23.3988 42.9868 23.4994 42.955C23.6105 42.9206 23.6873 42.8227 23.7164 42.7115C23.772 42.5183 23.7428 42.2854 23.6926 42.0949C23.6687 42.0022 23.5761 41.9467 23.4835 41.9599C23.3856 41.9731 23.3247 42.0499 23.3194 42.1451C23.2982 42.423 23.3776 42.6983 23.4808 42.955C23.5099 43.0265 23.5391 43.0979 23.5708 43.1694C23.6026 43.2435 23.637 43.3097 23.7084 43.3546C23.8646 43.4552 24.0446 43.3361 24.1134 43.1906C24.1769 43.0556 24.2007 42.8968 24.2086 42.7512C24.2166 42.6242 24.2086 42.4839 24.1689 42.3622C24.1292 42.2404 24.0551 42.116 23.936 42.0525C23.8011 41.9811 23.6396 41.9916 23.5099 42.071C23.2929 42.206 23.1156 42.5183 23.1844 42.7777C23.2268 42.9312 23.3617 43.0344 23.5179 43.0423C23.6608 43.0476 23.7984 42.9735 23.8778 42.8597C23.9572 42.7459 23.9784 42.603 23.9625 42.4707C23.9466 42.3384 23.9096 42.1954 23.809 42.0949C23.7508 42.0366 23.674 41.9996 23.592 41.9943C23.5099 41.989 23.4332 42.0181 23.3564 42.0525C23.24 42.1081 23.1315 42.1822 23.0547 42.2854C22.9621 42.4125 22.9489 42.5792 23.0044 42.7221C23.068 42.8783 23.1924 42.9947 23.3406 43.0688C23.6237 43.2117 23.9466 43.2805 24.2642 43.2805C24.3621 43.2805 24.4574 43.1932 24.4548 43.09C24.4521 42.9868 24.3727 42.8994 24.2642 42.8994C24.2166 42.8994 24.1689 42.8994 24.124 42.8941C24.1001 42.8941 24.0763 42.8915 24.0525 42.8888C24.0498 42.8888 24.0075 42.8835 24.0287 42.8862C24.0446 42.8862 23.9943 42.8809 23.9943 42.8809C23.899 42.865 23.8037 42.8412 23.7111 42.8121C23.6899 42.8042 23.6661 42.7962 23.6449 42.7883C23.6317 42.783 23.6211 42.7777 23.6079 42.775C23.6079 42.775 23.5761 42.7618 23.5946 42.7697C23.6132 42.7777 23.5788 42.7618 23.5761 42.7618C23.5682 42.7592 23.5602 42.7539 23.5523 42.7512C23.5311 42.7406 23.5099 42.73 23.4888 42.7168C23.4676 42.7036 23.4491 42.693 23.4305 42.6771C23.4544 42.6956 23.4147 42.6612 23.4094 42.6559C23.4014 42.648 23.375 42.6083 23.3908 42.6348C23.3856 42.6242 23.3564 42.5713 23.3697 42.6057C23.3617 42.5871 23.3591 42.5686 23.3538 42.5501C23.3485 42.5289 23.3538 42.5554 23.3538 42.558C23.3538 42.5474 23.3538 42.5368 23.3538 42.5236C23.3459 42.5607 23.3538 42.5315 23.3538 42.5236C23.3538 42.521 23.3617 42.4945 23.3538 42.5157C23.3459 42.5421 23.3829 42.4707 23.367 42.4919C23.3538 42.5077 23.3882 42.4707 23.3935 42.4654C23.4014 42.4574 23.4094 42.4522 23.4173 42.4442C23.3882 42.4627 23.412 42.4495 23.4173 42.4442C23.4517 42.423 23.4861 42.4019 23.5232 42.3833C23.5311 42.3807 23.5788 42.3569 23.5523 42.3701C23.5523 42.3701 23.584 42.3595 23.5629 42.3648C23.5417 42.3701 23.592 42.3754 23.5629 42.3648C23.5523 42.3622 23.5417 42.3595 23.5311 42.3542C23.5602 42.3675 23.5311 42.3542 23.5258 42.3489C23.5338 42.3542 23.5391 42.3622 23.547 42.3701C23.5364 42.3595 23.5338 42.3489 23.5443 42.3701C23.5496 42.378 23.5549 42.3886 23.5602 42.3966C23.5602 42.3966 23.5496 42.3648 23.5576 42.386C23.5629 42.4019 23.5682 42.4204 23.5735 42.4363C23.5788 42.4574 23.584 42.4813 23.5867 42.5024C23.5814 42.4654 23.5867 42.5289 23.5867 42.5395C23.5867 42.5474 23.5867 42.558 23.5867 42.566C23.5867 42.5713 23.584 42.6083 23.5867 42.5845C23.5893 42.5633 23.5867 42.5898 23.5867 42.5924C23.584 42.603 23.5814 42.6136 23.5788 42.6242C23.5788 42.6268 23.5655 42.6506 23.5761 42.6321C23.5867 42.6109 23.5682 42.6427 23.5655 42.648C23.5549 42.6692 23.5708 42.6427 23.5735 42.6401C23.5735 42.6401 23.5391 42.6692 23.5602 42.6533C23.5814 42.6374 23.5549 42.6586 23.5496 42.6586C23.5338 42.6586 23.5576 42.6586 23.5629 42.6533C23.5523 42.6559 23.5073 42.6665 23.5338 42.6639C23.5629 42.6586 23.5338 42.6639 23.5258 42.6639C23.5047 42.6586 23.5417 42.6692 23.5417 42.6665C23.5417 42.6665 23.5179 42.6612 23.5152 42.6586C23.5205 42.6665 23.5443 42.6718 23.5523 42.6798C23.5258 42.6559 23.5523 42.6798 23.5523 42.6851V42.6798C23.5523 42.6798 23.5417 42.6718 23.5523 42.693C23.5523 42.6851 23.5496 42.6771 23.547 42.6718C23.5391 42.648 23.547 42.7036 23.547 42.6771C23.547 42.6665 23.5549 42.6162 23.547 42.6559C23.5523 42.6348 23.5549 42.6136 23.5629 42.5924C23.5655 42.5818 23.5708 42.5713 23.5735 42.5607C23.5735 42.5633 23.5602 42.5898 23.5708 42.5686C23.5788 42.5501 23.5893 42.5342 23.5973 42.5157C23.6052 42.4971 23.6185 42.4813 23.629 42.4654C23.6105 42.4839 23.6449 42.4416 23.629 42.4654C23.637 42.4574 23.6449 42.4469 23.6529 42.4389C23.6661 42.4257 23.682 42.4098 23.6952 42.3992C23.6634 42.423 23.7164 42.3886 23.7243 42.386C23.6979 42.4019 23.7243 42.3913 23.7376 42.386C23.7058 42.3992 23.7164 42.3833 23.7323 42.386C23.7693 42.3939 23.7111 42.3754 23.7349 42.386C23.7428 42.386 23.7508 42.3913 23.7587 42.3913C23.7296 42.386 23.7402 42.3833 23.7534 42.3913C23.764 42.3992 23.772 42.4098 23.7508 42.386C23.7561 42.3913 23.7614 42.3939 23.7667 42.4019C23.7693 42.4072 23.7772 42.4125 23.7799 42.4177C23.7534 42.3886 23.772 42.4045 23.7746 42.4151C23.7799 42.423 23.7852 42.4336 23.7905 42.4416C23.8011 42.4601 23.7958 42.4522 23.7905 42.4389C23.8037 42.4733 23.8143 42.5077 23.8196 42.5421C23.8196 42.5527 23.8222 42.5633 23.8249 42.5713C23.8249 42.5633 23.8222 42.5342 23.8249 42.5765C23.8249 42.603 23.8302 42.6295 23.8302 42.6559C23.8302 42.7036 23.8302 42.7486 23.8249 42.7962C23.8249 42.8068 23.8249 42.8147 23.8222 42.8253C23.8196 42.8571 23.8275 42.8015 23.8222 42.8333C23.8169 42.8597 23.8117 42.8862 23.8064 42.9127C23.8011 42.9391 23.7931 42.9629 23.7852 42.9894C23.7825 43.0026 23.7773 43.0132 23.772 43.0265C23.764 43.0582 23.7905 42.9921 23.7693 43.0318C23.7693 43.0344 23.7534 43.0556 23.7667 43.0371C23.7746 43.0265 23.7746 43.0265 23.7614 43.0397L23.7773 43.0265C23.8117 43.0106 23.8064 43.0185 23.8593 43.0344C23.8937 43.0291 23.9175 43.0397 23.9334 43.0635L23.9255 43.0503C23.9096 43.0026 23.8831 42.9524 23.8619 42.9074C23.8461 42.8703 23.854 42.8888 23.8566 42.8968C23.8514 42.8809 23.8434 42.865 23.8381 42.8491C23.8275 42.8253 23.8169 42.7989 23.809 42.7724C23.7693 42.6692 23.7349 42.5633 23.7137 42.4548C23.7084 42.4283 23.7031 42.4019 23.7005 42.3754C23.7058 42.4045 23.7005 42.3701 23.7005 42.3675C23.7005 42.3542 23.6979 42.341 23.6979 42.3278C23.6926 42.2669 23.6926 42.2087 23.6979 42.1478L23.3247 42.1981C23.3326 42.2245 23.3379 42.251 23.3432 42.2775C23.3459 42.2934 23.3485 42.3092 23.3511 42.3278C23.3564 42.3595 23.3511 42.3039 23.3511 42.3357C23.3564 42.3913 23.3591 42.4495 23.3591 42.5051C23.3591 42.5342 23.3564 42.5633 23.3538 42.5924C23.3538 42.6215 23.3617 42.5633 23.3538 42.5898C23.3511 42.6004 23.3485 42.6109 23.3459 42.6215C23.3406 42.648 23.3591 42.5977 23.3459 42.6215C23.3353 42.6401 23.3564 42.6109 23.3617 42.6083C23.3723 42.6004 23.4147 42.5924 23.3829 42.5977H23.4094C23.3935 42.5924 23.3935 42.5951 23.4094 42.5977C23.4279 42.603 23.4411 42.6057 23.457 42.6189C23.4835 42.6401 23.5258 42.7036 23.5046 42.7195V42.7248C23.5046 42.7248 23.5099 42.7062 23.5126 42.6983C23.5126 42.693 23.5258 42.6612 23.5179 42.6824C23.5073 42.7089 23.5285 42.6586 23.5285 42.6612C23.5338 42.6507 23.5391 42.6427 23.5443 42.6321C23.5576 42.6109 23.5708 42.5898 23.584 42.5713C23.5867 42.566 23.6079 42.5395 23.5946 42.558C23.5814 42.5765 23.6026 42.5501 23.6052 42.5448C23.6211 42.5263 23.6396 42.5077 23.6555 42.4919C23.6634 42.4839 23.7111 42.4469 23.6793 42.468C23.7005 42.4522 23.7243 42.4363 23.7481 42.423C23.7667 42.4125 23.7878 42.3992 23.809 42.3913C23.7799 42.4045 23.8434 42.3833 23.8514 42.3833C23.8328 42.3833 23.8328 42.3807 23.854 42.3833C23.8249 42.3754 23.854 42.3886 23.854 42.3833C23.854 42.3728 23.8249 42.378 23.8514 42.3833C23.8328 42.3701 23.8302 42.3675 23.8408 42.378C23.8514 42.3886 23.8487 42.386 23.8328 42.3675C23.8355 42.3754 23.8434 42.386 23.8461 42.3939C23.8408 42.386 23.8355 42.3595 23.8434 42.3913C23.8434 42.4019 23.8487 42.4098 23.8487 42.4204C23.8487 42.4125 23.8487 42.3807 23.8461 42.4151C23.8461 42.4177 23.8461 42.4416 23.8461 42.4442C23.8566 42.4283 23.854 42.4151 23.8461 42.4363C23.8461 42.4442 23.8408 42.4548 23.8381 42.4627C23.8275 42.5051 23.8566 42.4336 23.8381 42.4707C23.8302 42.4866 23.8169 42.5024 23.809 42.521C23.8249 42.4892 23.8196 42.5077 23.8117 42.5157C23.8037 42.5236 23.7984 42.5289 23.7931 42.5368C23.7878 42.5448 23.7799 42.5501 23.772 42.5554C23.7481 42.5792 23.772 42.5554 23.7773 42.5527C23.7561 42.566 23.7349 42.5765 23.7137 42.5898C23.7428 42.5712 23.7323 42.5845 23.719 42.5898C23.7111 42.5924 23.7005 42.5951 23.6926 42.5977C23.6846 42.6004 23.674 42.603 23.6634 42.603C23.6237 42.6136 23.6714 42.603 23.6714 42.603C23.6661 42.6083 23.5946 42.603 23.6264 42.603C23.6529 42.603 23.6237 42.603 23.6158 42.6004C23.6026 42.5977 23.592 42.5924 23.5788 42.5898C23.5893 42.5924 23.6132 42.603 23.5788 42.5898C23.547 42.5712 23.5867 42.6109 23.5682 42.5818C23.5814 42.5845 23.5814 42.603 23.5682 42.5818C23.5735 42.6004 23.5761 42.6004 23.5708 42.5871C23.5682 42.5739 23.5682 42.5765 23.5708 42.5924C23.5708 42.5792 23.5708 42.5686 23.5708 42.5554C23.5708 42.5792 23.5682 42.5686 23.5708 42.5501C23.5761 42.5263 23.5814 42.5051 23.592 42.4839C23.5761 42.521 23.592 42.4892 23.5946 42.4813C23.5999 42.4707 23.6079 42.4601 23.6158 42.4469C23.6185 42.4416 23.6343 42.4177 23.6158 42.4469C23.6264 42.4336 23.637 42.423 23.6476 42.4125C23.6555 42.4045 23.6634 42.3992 23.6714 42.3913C23.7005 42.3648 23.6449 42.4019 23.682 42.3833C23.6899 42.378 23.7005 42.3728 23.7084 42.3675C23.7164 42.3622 23.7587 42.3463 23.719 42.3622C23.8117 42.3251 23.8858 42.2325 23.8514 42.1293C23.8222 42.0393 23.7164 41.9572 23.6185 41.9969L23.6264 41.9996Z" fill="#5F97A0"/>
</svg>
