<svg width="64" height="64" viewBox="0 0 64 64" fill="none" xmlns="http://www.w3.org/2000/svg">
<circle cx="32" cy="32" r="32" fill="#E4F7F9"/>
<path d="M37.3004 37.0573C37.3541 39.3996 37.4052 41.742 37.4537 44.0843L37.7474 43.7905C32.8534 44.235 27.9465 44.5313 23.032 44.6692C21.6757 44.7075 20.3219 44.7331 18.9655 44.7484L19.2593 45.0421C19.272 38.3217 19.2874 31.5988 19.3001 24.8783C19.3053 22.9652 19.3078 21.0494 19.3129 19.1362L19.0192 19.43C23.7728 19.2103 28.534 19.1975 33.2876 19.3968C34.5699 19.4504 35.8521 19.5194 37.1318 19.6037L36.8381 19.3099C36.9352 22.6944 37.0271 26.0789 37.114 29.4633C37.1242 29.8388 37.7091 29.8414 37.6989 29.4633C37.6121 26.0789 37.5201 22.6944 37.423 19.3099C37.4179 19.1439 37.2928 19.0264 37.1293 19.0162C32.4319 18.7071 27.7192 18.6024 23.0116 18.7045C21.6782 18.7326 20.3474 18.7786 19.0141 18.8399C18.8557 18.8476 18.7203 18.9676 18.7203 19.1337C18.7075 25.8541 18.6922 32.5771 18.6794 39.2975C18.6743 41.2107 18.6718 43.1264 18.6667 45.0396C18.6667 45.1954 18.8021 45.3333 18.9604 45.3333C23.8494 45.2797 28.7358 45.0753 33.6094 44.7177C34.9888 44.6156 36.3656 44.5032 37.7423 44.378C37.8981 44.3627 38.0386 44.2554 38.0361 44.0843C37.9875 41.742 37.9365 39.3996 37.8828 37.0573C37.8752 36.6818 37.2877 36.6793 37.2979 37.0573H37.3004Z" fill="#5F97A0"/>
<path d="M22.8532 42.9553C24.3628 42.5977 25.4203 41.438 25.8826 39.9871H25.3181C25.3947 40.309 25.4484 40.6436 25.5455 40.9603C25.6068 41.157 25.7064 41.2771 25.9056 41.346C26.0027 41.3792 26.1202 41.3409 26.1917 41.272C26.5263 40.945 26.8098 40.5797 27.0372 40.1736L26.5008 39.9488C26.3858 40.2605 26.3322 40.5797 26.3373 40.9118C26.3424 41.134 26.5825 41.2745 26.7792 41.1647C27.0142 41.0319 27.2236 40.8735 27.4101 40.6819L26.9503 40.3269C26.7383 40.6972 26.7409 41.2464 27.2722 41.323C27.7345 41.3895 28.0768 40.8709 28.2019 40.4955C28.3067 40.1864 27.8009 39.9642 27.6655 40.2707C27.3028 41.1034 27.124 42.1839 28.0691 42.71C29.0142 43.2362 30.1764 42.7484 31.1062 42.5159C31.4715 42.424 31.3157 41.8595 30.9504 41.9514C30.248 42.1277 29.4025 42.4623 28.6719 42.3116C27.76 42.1251 27.8801 41.2311 28.1713 40.567L27.6349 40.3422C27.5991 40.4469 27.5557 40.521 27.4893 40.6104C27.4561 40.6538 27.3514 40.8071 27.4535 40.6257C27.617 40.3396 27.2288 40.028 26.9938 40.2707C26.8405 40.429 26.6745 40.5516 26.4803 40.6615L26.9222 40.9144C26.9171 40.6283 26.9631 40.3754 27.0627 40.1072C27.1802 39.793 26.6872 39.5963 26.5263 39.8824C26.322 40.2502 26.0716 40.5695 25.7728 40.8633L26.0589 40.7892C26.1508 40.8198 26.0895 40.7688 26.0819 40.6921C26.0691 40.59 26.0333 40.4878 26.0103 40.3882C25.9669 40.2068 25.9235 40.0229 25.8826 39.8415C25.8137 39.5478 25.4024 39.5784 25.3181 39.8415C24.9171 41.1008 24.0052 42.0893 22.6974 42.3984C22.3296 42.4853 22.4854 43.0498 22.8532 42.9629V42.9553Z" fill="#5F97A0"/>
<path d="M22.3934 23.7979C22.5237 23.6446 22.7076 23.3994 22.9324 23.3892C23.1061 23.3815 23.3002 23.5143 23.4739 23.545C23.9388 23.6293 24.4113 23.4479 24.8864 23.4837C25.3615 23.5194 25.7753 23.6472 26.2224 23.7136C27.3769 23.8822 28.5723 23.8438 29.732 23.8362C31.0679 23.826 32.4038 23.7928 33.7372 23.7493C34.1126 23.7366 34.1152 23.1516 33.7372 23.1644C31.6988 23.2282 29.6554 23.2998 27.617 23.2334C27.3616 23.2257 27.1036 23.2129 26.8482 23.195C26.746 23.1874 26.6464 23.1797 26.5467 23.1695C26.4727 23.1618 26.3501 23.1465 26.3552 23.1465C25.8622 23.0724 25.3871 22.9371 24.8864 22.9013C24.6157 22.8809 24.3424 22.886 24.0742 22.9371C23.7549 22.9958 23.5454 22.96 23.2415 22.863C22.7255 22.6944 22.304 23.0035 21.9822 23.3866C21.7395 23.6727 22.1533 24.0891 22.396 23.8004L22.3934 23.7979Z" fill="#5F97A0"/>
<path d="M22.6105 25.7596C23.5275 25.6114 24.4573 25.5833 25.3871 25.568C26.3169 25.5527 27.2441 25.5348 28.1739 25.5501C29.1036 25.5654 29.9849 25.6268 30.8891 25.711C31.7933 25.7953 32.7308 25.8669 33.6529 25.757C34.0232 25.7136 34.0258 25.1261 33.6529 25.1721C32.7103 25.2845 31.7678 25.2078 30.8278 25.121C29.8878 25.0342 28.9785 24.9754 28.0487 24.9652C26.1968 24.9422 24.2862 24.9039 22.4547 25.1976C22.0844 25.2564 22.2402 25.8209 22.6105 25.7621V25.7596Z" fill="#5F97A0"/>
<path d="M28.3705 27.7009C29.3744 27.5961 30.3425 27.5297 31.3489 27.6421C32.3553 27.7545 33.3029 27.8899 34.2838 27.6958C34.6542 27.6217 34.4958 27.0572 34.128 27.1312C33.1675 27.3228 32.1969 27.1466 31.2365 27.0444C30.2761 26.9422 29.331 27.0137 28.368 27.1159C27.9976 27.1542 27.9925 27.7417 28.368 27.7009H28.3705Z" fill="#5F97A0"/>
<path d="M22.6208 28.0738C23.5965 27.7724 24.6131 27.7647 25.6246 27.7852C26.0027 27.7928 26.0027 27.2079 25.6246 27.2002C24.562 27.1798 23.4892 27.1951 22.4649 27.5118C22.1048 27.6217 22.258 28.1887 22.6208 28.0763V28.0738Z" fill="#5F97A0"/>
<path d="M31.5251 29.9487C32.368 29.9691 33.2084 30.0381 34.036 30.1964C34.3247 30.2526 34.5188 29.9333 34.3221 29.706C34.2863 29.6626 34.248 29.6217 34.2123 29.5783C34.1075 29.4582 33.9057 29.471 33.7985 29.5783C33.681 29.6958 33.6937 29.872 33.7985 29.9921C33.8342 30.0355 33.8725 30.0764 33.9083 30.1198L34.1944 29.6294C33.3157 29.4608 32.4217 29.3842 31.5277 29.3612C31.1496 29.351 31.1496 29.9384 31.5277 29.9461L31.5251 29.9487Z" fill="#5F97A0"/>
<path d="M22.6642 30.1658C23.6936 29.9946 24.7383 30.1019 25.7753 30.107C26.8124 30.1121 27.8827 30.0508 28.935 30.0023C29.3105 29.9844 29.3131 29.3995 28.935 29.4174C27.8418 29.4685 26.746 29.5323 25.6527 29.5221C24.5595 29.5119 23.5556 29.4301 22.5109 29.6038C22.1405 29.6651 22.2964 30.2296 22.6667 30.1683L22.6642 30.1658Z" fill="#5F97A0"/>
<path d="M22.6846 32.7354C26.5263 32.6716 30.368 32.6077 34.2097 32.5439C34.5852 32.5387 34.5877 31.9512 34.2097 31.9589C30.368 32.0228 26.5263 32.0866 22.6846 32.1505C22.3091 32.1556 22.3066 32.7431 22.6846 32.7354Z" fill="#5F97A0"/>
<path d="M22.9324 35.0267C25.6681 34.5234 28.4446 34.2936 31.2263 34.3395C31.6043 34.3446 31.6043 33.7597 31.2263 33.7546C28.3935 33.7061 25.5633 33.9487 22.7766 34.4621C22.4062 34.5311 22.562 35.0956 22.9324 35.0267Z" fill="#5F97A0"/>
<path d="M22.9911 36.5465C25.1878 37.0165 27.4254 36.7968 29.6502 36.7942C30.0283 36.7942 30.0283 36.2067 29.6502 36.2093C27.4816 36.2119 25.2875 36.4392 23.1469 35.982C22.7791 35.9028 22.6233 36.4673 22.9911 36.5465Z" fill="#5F97A0"/>
<path d="M40.2456 31.9078C39.0272 33.0445 37.727 34.102 36.4703 35.1978C35.2136 36.2936 33.8674 37.3562 32.4549 38.2757C31.7627 38.7279 31.0526 39.1749 30.3042 39.5223C30.2505 39.5478 30.0589 39.5912 30.013 39.6372L29.9568 39.6525C29.9721 39.7802 29.99 39.793 30.013 39.6959C30.0692 39.65 30.1202 39.489 30.156 39.4277C30.202 39.3486 30.2556 39.2719 30.3067 39.1953C30.5519 38.8275 30.8355 38.4826 31.119 38.148C32.2122 36.8607 33.3463 35.6244 34.5877 34.4775C35.9747 33.1952 37.4333 32.01 38.8969 30.8197H38.501C38.6185 30.9372 38.7794 30.9193 38.8994 30.8222C38.9939 30.7456 39.0859 30.669 39.1779 30.5872C39.4512 30.3446 39.0501 29.9461 38.7794 30.1888C38.6874 30.2705 38.5955 30.3471 38.501 30.4238H38.8969C38.7794 30.3063 38.6185 30.3241 38.4984 30.4212C35.6478 32.7405 32.8457 35.1007 30.534 37.9794C30.2531 38.3294 29.9644 38.6717 29.7269 39.0523C29.5685 39.3077 29.2799 39.7368 29.4868 40.0408C29.6783 40.3218 30.0538 40.2298 30.322 40.1302C30.7563 39.9667 31.1726 39.7292 31.5685 39.489C33.1318 38.5439 34.6133 37.5094 36.0028 36.3242C37.5584 34.9986 39.1523 33.7035 40.6466 32.3089C40.9122 32.0611 40.5138 31.6626 40.2481 31.9104L40.2456 31.9078Z" fill="#5F97A0"/>
<path d="M39.8701 29.7596C41.3133 28.4212 42.9199 27.2283 44.6135 26.2219C44.994 25.9946 45.5075 25.6957 45.9596 25.6753C46.1026 25.6676 46.0388 25.6574 46.0234 25.7494C46.0081 25.8618 45.9443 25.9716 45.8932 26.0712C45.7808 26.2934 45.6428 26.508 45.5024 26.7123C44.9379 27.5272 44.238 28.2526 43.5432 28.955C42.759 29.7494 41.9365 30.4953 41.1013 31.236C40.8177 31.4864 41.2341 31.9002 41.5151 31.6498C42.381 30.8835 43.2239 30.107 44.0413 29.2896C44.8587 28.4723 45.6428 27.6344 46.2252 26.6689C46.4347 26.3215 46.7667 25.7928 46.5598 25.3739C46.3529 24.955 45.7731 25.0801 45.4308 25.1925C44.8944 25.3688 44.404 25.6625 43.9212 25.9486C43.4385 26.2347 42.9378 26.5667 42.4678 26.9039C41.4231 27.6574 40.3988 28.4646 39.4563 29.3382C39.1804 29.5962 39.5942 30.0074 39.8701 29.752V29.7596Z" fill="#5F97A0"/>
<path d="M44.7284 28.4365C45.0196 28.8248 44.6645 29.2386 44.4347 29.5655C44.1256 30.0049 43.722 30.4289 43.3312 30.7941C42.3989 31.6703 41.4538 32.5336 40.5214 33.4123H40.9889C40.7181 33.1748 40.335 33.1058 40.0463 33.374C39.7832 33.6192 39.7475 34.0586 40.0208 34.314V33.8466L40.0157 33.8517C39.8803 33.9794 39.9007 34.1888 40.0157 34.3191C40.2839 34.6231 40.7232 34.5311 41.0093 34.3089C41.3976 34.0075 41.7679 33.6652 42.1281 33.3331C42.8024 32.7099 43.4921 32.1045 44.1435 31.4557C44.7948 30.8069 45.4385 30.176 45.8932 29.3969C46.0745 29.0853 46.2278 28.6945 46.1282 28.3318C46.003 27.8797 45.6633 27.6804 45.2035 27.7392C44.7871 27.7928 44.782 28.4544 45.2035 28.4007C45.3542 28.3803 45.4487 28.3343 45.4794 28.4723C45.51 28.6102 45.4819 28.7226 45.4283 28.8554C45.321 29.1134 45.1422 29.3739 44.9685 29.5911C44.5087 30.1607 43.9953 30.6843 43.4742 31.1952C42.9838 31.6779 42.478 32.1607 41.9544 32.6077C41.6785 32.8427 41.4052 33.0854 41.137 33.3306C41.0016 33.4532 40.8714 33.5784 40.7309 33.6933C40.6721 33.7418 40.6108 33.7878 40.5495 33.8338C40.501 33.8721 40.4627 33.8338 40.4831 33.8542V34.3217L40.4882 34.3166C40.6159 34.1965 40.6159 33.9692 40.4882 33.8491C40.4984 33.8619 40.5087 33.8721 40.5214 33.8823C40.6594 34.0024 40.8509 34.0126 40.9889 33.8823C42.0464 32.8861 43.1779 31.9615 44.1613 30.8912C44.759 30.2424 46.0158 29.0598 45.298 28.107C45.0451 27.7724 44.4704 28.0993 44.7284 28.4416V28.4365Z" fill="#5F97A0"/>
<path d="M38.9301 29.3918C38.7513 29.5553 38.6287 29.7903 38.6849 30.0381C38.7257 30.2194 38.8867 30.3574 39.0016 30.4953C39.1063 30.6179 39.2111 30.7405 39.3183 30.8631C39.3694 30.9193 39.418 30.9781 39.4716 31.0342C39.492 31.0547 39.5099 31.0751 39.5304 31.0956C39.5508 31.116 39.5687 31.139 39.5866 31.1594C39.5712 31.1415 39.5738 31.1441 39.5917 31.1671C39.796 31.4276 40.031 31.6626 40.2456 31.9155C40.3145 31.9972 40.3528 32.0432 40.3937 32.0917C40.4627 32.1811 40.5342 32.2501 40.644 32.291C40.902 32.3855 41.1472 32.2756 41.3465 32.1122H40.9327L40.9378 32.1173C41.0451 32.2399 41.2443 32.2195 41.3516 32.1173C41.5253 31.9538 41.6479 31.706 41.5917 31.4634C41.5789 31.4046 41.5508 31.3484 41.5176 31.2999C41.51 31.2871 41.4282 31.1901 41.4538 31.2207C41.395 31.1492 41.3414 31.0751 41.2775 31.0062C41.1677 30.8861 41.0706 30.7558 40.9557 30.6434C40.902 30.5898 40.8509 30.5336 40.7999 30.4749C40.7718 30.4416 40.7437 30.411 40.7181 30.3778C40.7028 30.3599 40.6849 30.3395 40.6696 30.319C40.6926 30.3471 40.69 30.3446 40.6619 30.3088C40.4652 30.0534 40.2379 29.8184 40.0284 29.5757C39.9058 29.4352 39.7909 29.2564 39.6019 29.2028C39.3567 29.1338 39.1166 29.2411 38.9301 29.3944C38.8381 29.4685 38.8126 29.6549 38.8841 29.7494C38.9786 29.8797 39.137 29.9436 39.2851 29.8567C39.4103 29.7826 39.4844 29.5834 39.3899 29.4557C39.3745 29.5706 39.3592 29.6907 39.3439 29.8082C39.3771 29.7801 39.4077 29.775 39.4486 29.7673C39.418 29.7724 39.3771 29.7034 39.4307 29.7801C39.4461 29.8031 39.4691 29.8235 39.4869 29.8439C39.5687 29.9384 39.6504 30.0355 39.7321 30.13C39.8139 30.2245 39.8982 30.3165 39.9774 30.411C40.0182 30.457 40.0565 30.503 40.0974 30.5489C40.123 30.577 40.1459 30.6026 40.1689 30.6307C40.1817 30.6434 40.1919 30.6588 40.2047 30.6715C40.1817 30.6434 40.1843 30.646 40.2124 30.6818C40.3682 30.8861 40.5521 31.0649 40.7181 31.2616C40.759 31.3101 40.7999 31.3561 40.8407 31.3995C40.8637 31.4251 40.8867 31.4506 40.9097 31.4761C40.9991 31.5758 40.8893 31.448 40.9429 31.517C40.9506 31.5272 41.0221 31.6243 41.0246 31.6243C41.0297 31.6217 41.0042 31.5732 41.017 31.5809C41.0425 31.5936 40.9403 31.6984 40.9327 31.7086H41.3465L41.3414 31.7035C41.229 31.5758 41.0425 31.609 40.9276 31.7035C40.8969 31.7265 40.8458 31.7418 40.8279 31.7444L40.8688 31.7622C40.8509 31.7444 40.8356 31.7239 40.8203 31.7035C40.8612 31.752 40.7999 31.6754 40.7794 31.6524C40.6977 31.5502 40.6083 31.4506 40.5214 31.351C40.4422 31.259 40.358 31.1722 40.2762 31.0828C40.1945 30.9934 40.1102 30.8989 40.0617 30.835C39.9033 30.623 39.7117 30.434 39.538 30.2347C39.4563 30.1402 39.3745 30.0457 39.2954 29.9487C39.2902 29.9436 39.2443 29.8823 39.2417 29.8848C39.2417 29.8848 39.2494 29.9308 39.2468 29.9282C39.2213 29.9129 39.3235 29.8209 39.3362 29.8082C39.4537 29.7009 39.4435 29.5017 39.3362 29.3944C39.2187 29.2769 39.0399 29.2871 38.9224 29.3944L38.9301 29.3918Z" fill="#5F97A0"/>
<path d="M38.6287 31.2054C37.1778 32.3421 35.727 33.4787 34.3885 34.7457C33.7372 35.3638 33.142 36.0356 32.5034 36.664C31.898 37.2591 31.2263 37.7419 30.4702 38.1276C30.11 38.3115 30.0053 38.8198 30.202 39.1544C30.4165 39.5223 30.8661 39.6091 31.2288 39.4226C32.0411 39.0114 32.787 38.475 33.4434 37.8466C34.0999 37.2183 34.7052 36.5209 35.3668 35.8875C36.7283 34.5873 38.2123 33.4251 39.6938 32.2654C40.0131 32.0151 39.9569 31.4659 39.6938 31.2028C39.3797 30.8887 38.9531 30.9525 38.6312 31.2028L38.6287 31.2054Z" fill="#5F97A0"/>
<path d="M38.2634 31.7954C37.6095 32.2756 36.953 32.7559 36.2991 33.2361C35.9722 33.4762 35.6427 33.7214 35.3745 34.0279C35.1063 34.3344 34.8713 34.6869 34.6465 35.0343C34.4217 35.3817 34.5673 35.8772 34.9147 36.0612C35.2876 36.2578 35.7142 36.1454 35.9415 35.7929C36.036 35.6448 36.1306 35.4992 36.2327 35.3536C36.2736 35.2923 36.317 35.2157 36.3707 35.1646C36.2557 35.2719 36.3528 35.1901 36.3809 35.1569C36.4064 35.1263 36.432 35.0982 36.4575 35.0675C36.575 34.9347 36.7027 34.8146 36.8381 34.7023C36.8688 34.6767 36.8994 34.6537 36.9301 34.6282C36.999 34.5694 36.8279 34.7048 36.9403 34.6205C37.0118 34.5669 37.0833 34.5132 37.1548 34.4621C37.7781 34.0049 38.3988 33.5503 39.022 33.093C39.1855 32.973 39.3107 32.8453 39.3669 32.6435C39.4154 32.4647 39.395 32.2246 39.2902 32.0662C39.0885 31.7546 38.6006 31.5477 38.2634 31.798V31.7954Z" fill="#5F97A0"/>
<path d="M41.3541 30.2194C42.2916 30.0738 43.063 29.5298 43.6479 28.8069C43.7092 28.7303 43.7705 28.6562 43.8395 28.5847C43.8778 28.5463 43.9187 28.5106 43.957 28.4723C44.0157 28.4186 43.8701 28.5208 43.9876 28.4569C44.1767 28.3522 44.3733 28.2551 44.5624 28.1479C44.9813 27.9078 45.3082 27.5604 45.6173 27.1951C45.8727 26.8963 45.9315 26.4237 45.6173 26.1325C45.3363 25.8745 44.828 25.8132 44.5547 26.1325C44.4219 26.2909 44.2865 26.4467 44.1383 26.5923C44.1 26.6306 44.0592 26.6664 44.0208 26.7021C43.9723 26.7481 43.9647 26.7507 44.0208 26.7072C43.9417 26.766 43.8599 26.8171 43.7731 26.8656C43.3695 27.0904 42.9736 27.282 42.6645 27.6421C42.5368 27.7903 42.4244 27.9486 42.289 28.0891C42.2252 28.1581 42.1562 28.2245 42.0847 28.2858C42.0847 28.2858 41.934 28.4007 42.0132 28.3445C42.0923 28.2884 41.9518 28.3854 41.9365 28.3956C41.8573 28.4467 41.7756 28.4953 41.6939 28.5387C41.6479 28.5642 41.5994 28.5847 41.5534 28.6076C41.4844 28.6409 41.4946 28.6255 41.5585 28.6076C41.3567 28.6715 41.1626 28.7328 40.9506 28.766C40.5623 28.8273 40.312 29.3331 40.4269 29.6907C40.5649 30.1147 40.9327 30.2807 41.3516 30.2143L41.3541 30.2194Z" fill="#5F97A0"/>
<path d="M42.9659 26.8273C42.547 27.3203 42.054 27.7392 41.5738 28.1709C41.0604 28.6357 40.5751 29.1287 40.1996 29.7137C40.0361 29.9665 40.0821 30.319 40.2583 30.5464C40.4346 30.7737 40.7641 30.9142 41.0476 30.8146C42.0821 30.457 42.874 29.7188 43.6249 28.9525C43.9008 28.6715 43.9263 28.1657 43.6249 27.8899C43.3235 27.614 42.8561 27.591 42.5623 27.8899C42.2405 28.2168 41.9186 28.5463 41.561 28.835C41.5432 28.8503 41.5253 28.8631 41.5074 28.8784C41.4461 28.9269 41.4614 28.9167 41.5534 28.8426C41.5023 28.8707 41.4563 28.9142 41.4103 28.9474C41.3184 29.0112 41.2264 29.0725 41.1319 29.1287C41.0374 29.1849 40.9403 29.2386 40.8382 29.2871C40.8126 29.2999 40.7845 29.3126 40.7564 29.3254C40.6824 29.3586 40.7028 29.351 40.8126 29.3024C40.759 29.3101 40.6977 29.3458 40.644 29.3637L41.4921 30.4672C41.5355 30.4008 41.5789 30.3344 41.6275 30.268C41.6479 30.2399 41.676 30.2118 41.6913 30.1811C41.6096 30.3395 41.6351 30.2526 41.6811 30.1964C41.7782 30.0789 41.8778 29.964 41.9825 29.8542C42.1996 29.6268 42.4295 29.4123 42.662 29.2002C43.1294 28.7788 43.6122 28.3675 44.0208 27.8848C44.1511 27.729 44.2405 27.5629 44.2405 27.3535C44.2405 27.1696 44.1588 26.9499 44.0208 26.8222C43.7424 26.5667 43.2316 26.5029 42.9582 26.8222L42.9659 26.8273Z" fill="#5F97A0"/>
</svg>
