<svg width="20" height="20" viewBox="0 0 20 20" fill="none" xmlns="http://www.w3.org/2000/svg">
<path fill-rule="evenodd" clip-rule="evenodd" d="M15.6 11.1667L17.1 12.675C17.4852 13.0666 17.5985 13.6508 17.3876 14.158C17.1767 14.6652 16.6826 14.9969 16.1333 15H13.3333V15.2833C13.2523 17.0447 11.7616 18.4087 10 18.3333C8.23834 18.4087 6.74771 17.0447 6.66666 15.2833V15H3.86666C3.31736 14.9969 2.82328 14.6652 2.61239 14.158C2.40151 13.6508 2.5148 13.0666 2.9 12.675L4.4 11.1667V7.275C4.40295 5.6593 5.10153 4.12313 6.31727 3.05896C7.533 1.99479 9.14813 1.50571 10.75 1.71666C13.5712 2.14907 15.6413 4.59612 15.6 7.45V11.1667ZM10 16.6667C10.8362 16.7257 11.5707 16.1161 11.6667 15.2833V15H8.33333V15.2833C8.42934 16.1161 9.16382 16.7257 10 16.6667Z" fill="#9D9D9D"/>
</svg>
