<svg width="14" height="14" viewBox="0 0 14 14" fill="none" xmlns="http://www.w3.org/2000/svg">
<path fill-rule="evenodd" clip-rule="evenodd" d="M3.29612 1.45686C4.39245 0.724321 5.68138 0.333328 6.99992 0.333328C7.8754 0.333328 8.74231 0.505767 9.55115 0.840798C10.36 1.17583 11.0949 1.66689 11.714 2.28595C12.333 2.90501 12.8241 3.63993 13.1591 4.44877C13.4942 5.25761 13.6666 6.12452 13.6666 6.99999C13.6666 8.31854 13.2756 9.60747 12.5431 10.7038C11.8105 11.8001 10.7693 12.6546 9.55115 13.1592C8.33297 13.6638 6.99253 13.7958 5.69932 13.5386C4.40611 13.2813 3.21823 12.6464 2.28588 11.714C1.35353 10.7817 0.718588 9.5938 0.461353 8.3006C0.204118 7.00739 0.336141 5.66695 0.840725 4.44877C1.34531 3.2306 2.19979 2.18941 3.29612 1.45686ZM4.03688 11.4345C4.91394 12.0205 5.94509 12.3333 6.99992 12.3333C8.41441 12.3333 9.77096 11.7714 10.7712 10.7712C11.7714 9.77104 12.3333 8.41448 12.3333 6.99999C12.3333 5.94516 12.0205 4.91402 11.4344 4.03695C10.8484 3.15989 10.0154 2.47631 9.0409 2.07264C8.06636 1.66897 6.99401 1.56335 5.95944 1.76914C4.92487 1.97493 3.97457 2.48288 3.22869 3.22876C2.48281 3.97464 1.97485 4.92495 1.76907 5.95951C1.56328 6.99408 1.6689 8.06643 2.07256 9.04097C2.47623 10.0155 3.15982 10.8485 4.03688 11.4345ZM7.66658 6.33333H9.66658C9.8434 6.33333 10.013 6.40357 10.138 6.52859C10.263 6.65361 10.3333 6.82318 10.3333 6.99999C10.3333 7.17681 10.263 7.34637 10.138 7.4714C10.013 7.59642 9.8434 7.66666 9.66658 7.66666H6.99992C6.82311 7.66666 6.65354 7.59642 6.52851 7.4714C6.40349 7.34637 6.33325 7.17681 6.33325 6.99999V4.33333C6.33325 4.15652 6.40349 3.98695 6.52851 3.86192C6.65354 3.7369 6.82311 3.66666 6.99992 3.66666C7.17673 3.66666 7.3463 3.7369 7.47132 3.86192C7.59635 3.98695 7.66658 4.15652 7.66658 4.33333V6.33333Z" fill="#BCBCBC"/>
</svg>
