<svg width="20" height="20" viewBox="0 0 20 20" fill="none" xmlns="http://www.w3.org/2000/svg">
<path fill-rule="evenodd" clip-rule="evenodd" d="M17.5001 4.99999H13.3334V3.60833C13.3139 3.07484 13.0836 2.57088 12.6931 2.2069C12.3025 1.84293 11.7836 1.64865 11.2501 1.66666H8.75008C8.21654 1.64865 7.69763 1.84293 7.30711 2.2069C6.91658 2.57088 6.6863 3.07484 6.66675 3.60833V4.99999H2.50008C2.27907 4.99999 2.06711 5.08779 1.91083 5.24407C1.75455 5.40035 1.66675 5.61231 1.66675 5.83333C1.66675 6.05434 1.75455 6.2663 1.91083 6.42258C2.06711 6.57886 2.27907 6.66666 2.50008 6.66666H3.33341V15.8333C3.33341 16.4964 3.59681 17.1323 4.06565 17.6011C4.53449 18.0699 5.17037 18.3333 5.83342 18.3333H14.1667C14.8298 18.3333 15.4657 18.0699 15.9345 17.6011C16.4034 17.1323 16.6667 16.4964 16.6667 15.8333V6.66666H17.5001C17.7211 6.66666 17.9331 6.57886 18.0893 6.42258C18.2456 6.2663 18.3334 6.05434 18.3334 5.83333C18.3334 5.61231 18.2456 5.40035 18.0893 5.24407C17.9331 5.08779 17.7211 4.99999 17.5001 4.99999ZM8.33342 3.60833C8.33342 3.47499 8.50841 3.33333 8.75008 3.33333H11.2501C11.4917 3.33333 11.6667 3.47499 11.6667 3.60833V4.99999H8.33342V3.60833ZM15.0001 15.8333C15.0001 16.0543 14.9123 16.2663 14.756 16.4226C14.5997 16.5789 14.3878 16.6667 14.1667 16.6667H5.83342C5.6124 16.6667 5.40044 16.5789 5.24416 16.4226C5.08788 16.2663 5.00008 16.0543 5.00008 15.8333V6.66666H15.0001V15.8333ZM7.50008 14.1667C7.7211 14.1667 7.93306 14.0789 8.08934 13.9226C8.24562 13.7663 8.33341 13.5543 8.33341 13.3333V9.99999C8.33341 9.77898 8.24562 9.56702 8.08934 9.41074C7.93306 9.25446 7.7211 9.16666 7.50008 9.16666C7.27907 9.16666 7.06711 9.25446 6.91083 9.41074C6.75455 9.56702 6.66675 9.77898 6.66675 9.99999V13.3333C6.66675 13.5543 6.75455 13.7663 6.91083 13.9226C7.06711 14.0789 7.27907 14.1667 7.50008 14.1667ZM13.0893 13.9226C12.9331 14.0789 12.7211 14.1667 12.5001 14.1667C12.2791 14.1667 12.0671 14.0789 11.9108 13.9226C11.7545 13.7663 11.6667 13.5543 11.6667 13.3333V9.99999C11.6667 9.77898 11.7545 9.56702 11.9108 9.41074C12.0671 9.25446 12.2791 9.16666 12.5001 9.16666C12.7211 9.16666 12.9331 9.25446 13.0893 9.41074C13.2456 9.56702 13.3334 9.77898 13.3334 9.99999V13.3333C13.3334 13.5543 13.2456 13.7663 13.0893 13.9226Z" fill="#BCBCBC"/>
</svg>
